<svg xmlns="http://www.w3.org/2000/svg" xmlns:xlink="http://www.w3.org/1999/xlink" width="70" zoomAndPan="magnify" viewBox="0 0 52.5 52.499999" height="70" preserveAspectRatio="xMidYMid meet" version="1.0"><defs><clipPath id="ab3a83d4d7"><path d="M 0 0 L 52.003906 0 L 52.003906 52.003906 L 0 52.003906 Z M 0 0 " clip-rule="nonzero"/></clipPath></defs><g clip-path="url(#ab3a83d4d7)"><path fill="#000000" d="M 33.386719 12.15625 L 33.386719 15.421875 C 33.394531 15.65625 33.476562 15.855469 33.644531 16.019531 C 33.8125 16.183594 34.011719 16.265625 34.246094 16.265625 C 34.480469 16.265625 34.679688 16.183594 34.847656 16.019531 C 35.011719 15.855469 35.097656 15.65625 35.101562 15.421875 L 35.101562 12.15625 Z M 25.148438 12.15625 L 25.148438 15.683594 C 25.152344 15.917969 25.234375 16.117188 25.402344 16.28125 C 25.566406 16.445312 25.769531 16.527344 26.003906 16.527344 C 26.238281 16.527344 26.4375 16.445312 26.601562 16.28125 C 26.769531 16.117188 26.851562 15.917969 26.855469 15.683594 L 26.855469 12.15625 Z M 16.902344 12.15625 L 16.902344 15.421875 C 16.902344 15.660156 16.984375 15.863281 17.152344 16.027344 C 17.320312 16.195312 17.523438 16.28125 17.757812 16.28125 C 17.996094 16.28125 18.199219 16.195312 18.363281 16.027344 C 18.53125 15.863281 18.617188 15.660156 18.617188 15.421875 L 18.617188 12.15625 Z M 25.148438 12.15625 L 25.148438 15.683594 C 25.152344 15.917969 25.234375 16.117188 25.402344 16.28125 C 25.566406 16.445312 25.769531 16.527344 26.003906 16.527344 C 26.238281 16.527344 26.4375 16.445312 26.601562 16.28125 C 26.769531 16.117188 26.851562 15.917969 26.855469 15.683594 L 26.855469 12.15625 Z M 33.386719 12.15625 L 33.386719 15.421875 C 33.394531 15.65625 33.476562 15.855469 33.644531 16.019531 C 33.8125 16.183594 34.011719 16.265625 34.246094 16.265625 C 34.480469 16.265625 34.679688 16.183594 34.847656 16.019531 C 35.011719 15.855469 35.097656 15.65625 35.101562 15.421875 L 35.101562 12.15625 Z M 33.386719 12.15625 L 33.386719 15.421875 C 33.394531 15.65625 33.476562 15.855469 33.644531 16.019531 C 33.8125 16.183594 34.011719 16.265625 34.246094 16.265625 C 34.480469 16.265625 34.679688 16.183594 34.847656 16.019531 C 35.011719 15.855469 35.097656 15.65625 35.101562 15.421875 L 35.101562 12.15625 Z M 25.148438 12.15625 L 25.148438 15.683594 C 25.152344 15.917969 25.234375 16.117188 25.402344 16.28125 C 25.566406 16.445312 25.769531 16.527344 26.003906 16.527344 C 26.238281 16.527344 26.4375 16.445312 26.601562 16.28125 C 26.769531 16.117188 26.851562 15.917969 26.855469 15.683594 L 26.855469 12.15625 Z M 16.902344 12.15625 L 16.902344 15.421875 C 16.902344 15.660156 16.984375 15.863281 17.152344 16.027344 C 17.320312 16.195312 17.523438 16.28125 17.757812 16.28125 C 17.996094 16.28125 18.199219 16.195312 18.363281 16.027344 C 18.53125 15.863281 18.617188 15.660156 18.617188 15.421875 L 18.617188 12.15625 Z M 16.902344 12.15625 L 16.902344 15.421875 C 16.902344 15.660156 16.984375 15.863281 17.152344 16.027344 C 17.320312 16.195312 17.523438 16.28125 17.757812 16.28125 C 17.996094 16.28125 18.199219 16.195312 18.363281 16.027344 C 18.53125 15.863281 18.617188 15.660156 18.617188 15.421875 L 18.617188 12.15625 Z M 25.148438 12.15625 L 25.148438 15.683594 C 25.152344 15.917969 25.234375 16.117188 25.402344 16.28125 C 25.566406 16.445312 25.769531 16.527344 26.003906 16.527344 C 26.238281 16.527344 26.4375 16.445312 26.601562 16.28125 C 26.769531 16.117188 26.851562 15.917969 26.855469 15.683594 L 26.855469 12.15625 Z M 33.386719 12.15625 L 33.386719 15.421875 C 33.394531 15.65625 33.476562 15.855469 33.644531 16.019531 C 33.8125 16.183594 34.011719 16.265625 34.246094 16.265625 C 34.480469 16.265625 34.679688 16.183594 34.847656 16.019531 C 35.011719 15.855469 35.097656 15.65625 35.101562 15.421875 L 35.101562 12.15625 Z M 33.386719 12.15625 L 33.386719 15.421875 C 33.394531 15.65625 33.476562 15.855469 33.644531 16.019531 C 33.8125 16.183594 34.011719 16.265625 34.246094 16.265625 C 34.480469 16.265625 34.679688 16.183594 34.847656 16.019531 C 35.011719 15.855469 35.097656 15.65625 35.101562 15.421875 L 35.101562 12.15625 Z M 25.148438 12.15625 L 25.148438 15.683594 C 25.152344 15.917969 25.234375 16.117188 25.402344 16.28125 C 25.566406 16.445312 25.769531 16.527344 26.003906 16.527344 C 26.238281 16.527344 26.4375 16.445312 26.601562 16.28125 C 26.769531 16.117188 26.851562 15.917969 26.855469 15.683594 L 26.855469 12.15625 Z M 16.902344 12.15625 L 16.902344 15.421875 C 16.902344 15.660156 16.984375 15.863281 17.152344 16.027344 C 17.320312 16.195312 17.523438 16.28125 17.757812 16.28125 C 17.996094 16.28125 18.199219 16.195312 18.363281 16.027344 C 18.53125 15.863281 18.617188 15.660156 18.617188 15.421875 L 18.617188 12.15625 Z M 16.902344 12.15625 L 16.902344 15.421875 C 16.902344 15.660156 16.984375 15.863281 17.152344 16.027344 C 17.320312 16.195312 17.523438 16.28125 17.757812 16.28125 C 17.996094 16.28125 18.199219 16.195312 18.363281 16.027344 C 18.53125 15.863281 18.617188 15.660156 18.617188 15.421875 L 18.617188 12.15625 Z M 25.148438 12.15625 L 25.148438 15.683594 C 25.152344 15.917969 25.234375 16.117188 25.402344 16.28125 C 25.566406 16.445312 25.769531 16.527344 26.003906 16.527344 C 26.238281 16.527344 26.4375 16.445312 26.601562 16.28125 C 26.769531 16.117188 26.851562 15.917969 26.855469 15.683594 L 26.855469 12.15625 Z M 33.386719 12.15625 L 33.386719 15.421875 C 33.394531 15.65625 33.476562 15.855469 33.644531 16.019531 C 33.8125 16.183594 34.011719 16.265625 34.246094 16.265625 C 34.480469 16.265625 34.679688 16.183594 34.847656 16.019531 C 35.011719 15.855469 35.097656 15.65625 35.101562 15.421875 L 35.101562 12.15625 Z M 33.386719 12.15625 L 33.386719 15.421875 C 33.394531 15.65625 33.476562 15.855469 33.644531 16.019531 C 33.8125 16.183594 34.011719 16.265625 34.246094 16.265625 C 34.480469 16.265625 34.679688 16.183594 34.847656 16.019531 C 35.011719 15.855469 35.097656 15.65625 35.101562 15.421875 L 35.101562 12.15625 Z M 25.148438 12.15625 L 25.148438 15.683594 C 25.152344 15.917969 25.234375 16.117188 25.402344 16.28125 C 25.566406 16.445312 25.769531 16.527344 26.003906 16.527344 C 26.238281 16.527344 26.4375 16.445312 26.601562 16.28125 C 26.769531 16.117188 26.851562 15.917969 26.855469 15.683594 L 26.855469 12.15625 Z M 16.902344 12.15625 L 16.902344 15.421875 C 16.902344 15.660156 16.984375 15.863281 17.152344 16.027344 C 17.320312 16.195312 17.523438 16.28125 17.757812 16.28125 C 17.996094 16.28125 18.199219 16.195312 18.363281 16.027344 C 18.53125 15.863281 18.617188 15.660156 18.617188 15.421875 L 18.617188 12.15625 Z M 16.902344 12.15625 L 16.902344 15.421875 C 16.902344 15.660156 16.984375 15.863281 17.152344 16.027344 C 17.320312 16.195312 17.523438 16.28125 17.757812 16.28125 C 17.996094 16.28125 18.199219 16.195312 18.363281 16.027344 C 18.53125 15.863281 18.617188 15.660156 18.617188 15.421875 L 18.617188 12.15625 Z M 25.148438 12.15625 L 25.148438 15.683594 C 25.152344 15.917969 25.234375 16.117188 25.402344 16.28125 C 25.566406 16.445312 25.769531 16.527344 26.003906 16.527344 C 26.238281 16.527344 26.4375 16.445312 26.601562 16.28125 C 26.769531 16.117188 26.851562 15.917969 26.855469 15.683594 L 26.855469 12.15625 Z M 33.386719 12.15625 L 33.386719 15.421875 C 33.394531 15.65625 33.476562 15.855469 33.644531 16.019531 C 33.8125 16.183594 34.011719 16.265625 34.246094 16.265625 C 34.480469 16.265625 34.679688 16.183594 34.847656 16.019531 C 35.011719 15.855469 35.097656 15.65625 35.101562 15.421875 L 35.101562 12.15625 Z M 33.386719 12.15625 L 33.386719 15.421875 C 33.394531 15.65625 33.476562 15.855469 33.644531 16.019531 C 33.8125 16.183594 34.011719 16.265625 34.246094 16.265625 C 34.480469 16.265625 34.679688 16.183594 34.847656 16.019531 C 35.011719 15.855469 35.097656 15.65625 35.101562 15.421875 L 35.101562 12.15625 Z M 25.148438 12.15625 L 25.148438 15.683594 C 25.152344 15.917969 25.234375 16.117188 25.402344 16.28125 C 25.566406 16.445312 25.769531 16.527344 26.003906 16.527344 C 26.238281 16.527344 26.4375 16.445312 26.601562 16.28125 C 26.769531 16.117188 26.851562 15.917969 26.855469 15.683594 L 26.855469 12.15625 Z M 16.902344 12.15625 L 16.902344 15.421875 C 16.902344 15.660156 16.984375 15.863281 17.152344 16.027344 C 17.320312 16.195312 17.523438 16.28125 17.757812 16.28125 C 17.996094 16.28125 18.199219 16.195312 18.363281 16.027344 C 18.53125 15.863281 18.617188 15.660156 18.617188 15.421875 L 18.617188 12.15625 Z M 16.902344 12.15625 L 16.902344 15.421875 C 16.902344 15.660156 16.984375 15.863281 17.152344 16.027344 C 17.320312 16.195312 17.523438 16.28125 17.757812 16.28125 C 17.996094 16.28125 18.199219 16.195312 18.363281 16.027344 C 18.53125 15.863281 18.617188 15.660156 18.617188 15.421875 L 18.617188 12.15625 Z M 25.148438 12.15625 L 25.148438 15.683594 C 25.152344 15.917969 25.234375 16.117188 25.402344 16.28125 C 25.566406 16.445312 25.769531 16.527344 26.003906 16.527344 C 26.238281 16.527344 26.4375 16.445312 26.601562 16.28125 C 26.769531 16.117188 26.851562 15.917969 26.855469 15.683594 L 26.855469 12.15625 Z M 33.386719 12.15625 L 33.386719 15.421875 C 33.394531 15.65625 33.476562 15.855469 33.644531 16.019531 C 33.8125 16.183594 34.011719 16.265625 34.246094 16.265625 C 34.480469 16.265625 34.679688 16.183594 34.847656 16.019531 C 35.011719 15.855469 35.097656 15.65625 35.101562 15.421875 L 35.101562 12.15625 Z M 33.386719 12.15625 L 33.386719 15.421875 C 33.394531 15.65625 33.476562 15.855469 33.644531 16.019531 C 33.8125 16.183594 34.011719 16.265625 34.246094 16.265625 C 34.480469 16.265625 34.679688 16.183594 34.847656 16.019531 C 35.011719 15.855469 35.097656 15.65625 35.101562 15.421875 L 35.101562 12.15625 Z M 25.148438 12.15625 L 25.148438 15.683594 C 25.152344 15.917969 25.234375 16.117188 25.402344 16.28125 C 25.566406 16.445312 25.769531 16.527344 26.003906 16.527344 C 26.238281 16.527344 26.4375 16.445312 26.601562 16.28125 C 26.769531 16.117188 26.851562 15.917969 26.855469 15.683594 L 26.855469 12.15625 Z M 16.902344 12.15625 L 16.902344 15.421875 C 16.902344 15.660156 16.984375 15.863281 17.152344 16.027344 C 17.320312 16.195312 17.523438 16.28125 17.757812 16.28125 C 17.996094 16.28125 18.199219 16.195312 18.363281 16.027344 C 18.53125 15.863281 18.617188 15.660156 18.617188 15.421875 L 18.617188 12.15625 Z M 16.902344 12.15625 L 16.902344 15.421875 C 16.902344 15.660156 16.984375 15.863281 17.152344 16.027344 C 17.320312 16.195312 17.523438 16.28125 17.757812 16.28125 C 17.996094 16.28125 18.199219 16.195312 18.363281 16.027344 C 18.53125 15.863281 18.617188 15.660156 18.617188 15.421875 L 18.617188 12.15625 Z M 25.148438 12.15625 L 25.148438 15.683594 C 25.152344 15.917969 25.234375 16.117188 25.402344 16.28125 C 25.566406 16.445312 25.769531 16.527344 26.003906 16.527344 C 26.238281 16.527344 26.4375 16.445312 26.601562 16.28125 C 26.769531 16.117188 26.851562 15.917969 26.855469 15.683594 L 26.855469 12.15625 Z M 33.386719 12.15625 L 33.386719 15.421875 C 33.394531 15.65625 33.476562 15.855469 33.644531 16.019531 C 33.8125 16.183594 34.011719 16.265625 34.246094 16.265625 C 34.480469 16.265625 34.679688 16.183594 34.847656 16.019531 C 35.011719 15.855469 35.097656 15.65625 35.101562 15.421875 L 35.101562 12.15625 Z M 33.386719 12.15625 L 33.386719 15.421875 C 33.394531 15.65625 33.476562 15.855469 33.644531 16.019531 C 33.8125 16.183594 34.011719 16.265625 34.246094 16.265625 C 34.480469 16.265625 34.679688 16.183594 34.847656 16.019531 C 35.011719 15.855469 35.097656 15.65625 35.101562 15.421875 L 35.101562 12.15625 Z M 25.148438 12.15625 L 25.148438 15.683594 C 25.152344 15.917969 25.234375 16.117188 25.402344 16.28125 C 25.566406 16.445312 25.769531 16.527344 26.003906 16.527344 C 26.238281 16.527344 26.4375 16.445312 26.601562 16.28125 C 26.769531 16.117188 26.851562 15.917969 26.855469 15.683594 L 26.855469 12.15625 Z M 16.902344 12.15625 L 16.902344 15.421875 C 16.902344 15.660156 16.984375 15.863281 17.152344 16.027344 C 17.320312 16.195312 17.523438 16.28125 17.757812 16.28125 C 17.996094 16.28125 18.199219 16.195312 18.363281 16.027344 C 18.53125 15.863281 18.617188 15.660156 18.617188 15.421875 L 18.617188 12.15625 Z M 16.902344 12.15625 L 16.902344 15.421875 C 16.902344 15.660156 16.984375 15.863281 17.152344 16.027344 C 17.320312 16.195312 17.523438 16.28125 17.757812 16.28125 C 17.996094 16.28125 18.199219 16.195312 18.363281 16.027344 C 18.53125 15.863281 18.617188 15.660156 18.617188 15.421875 L 18.617188 12.15625 Z M 25.148438 12.15625 L 25.148438 15.683594 C 25.152344 15.917969 25.234375 16.117188 25.402344 16.28125 C 25.566406 16.445312 25.769531 16.527344 26.003906 16.527344 C 26.238281 16.527344 26.4375 16.445312 26.601562 16.28125 C 26.769531 16.117188 26.851562 15.917969 26.855469 15.683594 L 26.855469 12.15625 Z M 33.386719 12.15625 L 33.386719 15.421875 C 33.394531 15.65625 33.476562 15.855469 33.644531 16.019531 C 33.8125 16.183594 34.011719 16.265625 34.246094 16.265625 C 34.480469 16.265625 34.679688 16.183594 34.847656 16.019531 C 35.011719 15.855469 35.097656 15.65625 35.101562 15.421875 L 35.101562 12.15625 Z M 33.386719 12.15625 L 33.386719 15.421875 C 33.394531 15.65625 33.476562 15.855469 33.644531 16.019531 C 33.8125 16.183594 34.011719 16.265625 34.246094 16.265625 C 34.480469 16.265625 34.679688 16.183594 34.847656 16.019531 C 35.011719 15.855469 35.097656 15.65625 35.101562 15.421875 L 35.101562 12.15625 Z M 25.148438 12.15625 L 25.148438 15.683594 C 25.152344 15.917969 25.234375 16.117188 25.402344 16.28125 C 25.566406 16.445312 25.769531 16.527344 26.003906 16.527344 C 26.238281 16.527344 26.4375 16.445312 26.601562 16.28125 C 26.769531 16.117188 26.851562 15.917969 26.855469 15.683594 L 26.855469 12.15625 Z M 16.902344 12.15625 L 16.902344 15.421875 C 16.902344 15.660156 16.984375 15.863281 17.152344 16.027344 C 17.320312 16.195312 17.523438 16.28125 17.757812 16.28125 C 17.996094 16.28125 18.199219 16.195312 18.363281 16.027344 C 18.53125 15.863281 18.617188 15.660156 18.617188 15.421875 L 18.617188 12.15625 Z M 16.902344 12.15625 L 16.902344 15.421875 C 16.902344 15.660156 16.984375 15.863281 17.152344 16.027344 C 17.320312 16.195312 17.523438 16.28125 17.757812 16.28125 C 17.996094 16.28125 18.199219 16.195312 18.363281 16.027344 C 18.53125 15.863281 18.617188 15.660156 18.617188 15.421875 L 18.617188 12.15625 Z M 25.148438 12.15625 L 25.148438 15.683594 C 25.152344 15.917969 25.234375 16.117188 25.402344 16.28125 C 25.566406 16.445312 25.769531 16.527344 26.003906 16.527344 C 26.238281 16.527344 26.4375 16.445312 26.601562 16.28125 C 26.769531 16.117188 26.851562 15.917969 26.855469 15.683594 L 26.855469 12.15625 Z M 33.386719 12.15625 L 33.386719 15.421875 C 33.394531 15.65625 33.476562 15.855469 33.644531 16.019531 C 33.8125 16.183594 34.011719 16.265625 34.246094 16.265625 C 34.480469 16.265625 34.679688 16.183594 34.847656 16.019531 C 35.011719 15.855469 35.097656 15.65625 35.101562 15.421875 L 35.101562 12.15625 Z M 33.386719 12.15625 L 33.386719 15.421875 C 33.394531 15.65625 33.476562 15.855469 33.644531 16.019531 C 33.8125 16.183594 34.011719 16.265625 34.246094 16.265625 C 34.480469 16.265625 34.679688 16.183594 34.847656 16.019531 C 35.011719 15.855469 35.097656 15.65625 35.101562 15.421875 L 35.101562 12.15625 Z M 25.148438 12.15625 L 25.148438 15.683594 C 25.152344 15.917969 25.234375 16.117188 25.402344 16.28125 C 25.566406 16.445312 25.769531 16.527344 26.003906 16.527344 C 26.238281 16.527344 26.4375 16.445312 26.601562 16.28125 C 26.769531 16.117188 26.851562 15.917969 26.855469 15.683594 L 26.855469 12.15625 Z M 16.902344 12.15625 L 16.902344 15.421875 C 16.902344 15.660156 16.984375 15.863281 17.152344 16.027344 C 17.320312 16.195312 17.523438 16.28125 17.757812 16.28125 C 17.996094 16.28125 18.199219 16.195312 18.363281 16.027344 C 18.53125 15.863281 18.617188 15.660156 18.617188 15.421875 L 18.617188 12.15625 Z M 16.902344 12.15625 L 16.902344 15.421875 C 16.902344 15.660156 16.984375 15.863281 17.152344 16.027344 C 17.320312 16.195312 17.523438 16.28125 17.757812 16.28125 C 17.996094 16.28125 18.199219 16.195312 18.363281 16.027344 C 18.53125 15.863281 18.617188 15.660156 18.617188 15.421875 L 18.617188 12.15625 Z M 25.148438 12.15625 L 25.148438 15.683594 C 25.152344 15.917969 25.234375 16.117188 25.402344 16.28125 C 25.566406 16.445312 25.769531 16.527344 26.003906 16.527344 C 26.238281 16.527344 26.4375 16.445312 26.601562 16.28125 C 26.769531 16.117188 26.851562 15.917969 26.855469 15.683594 L 26.855469 12.15625 Z M 33.386719 12.15625 L 33.386719 15.421875 C 33.394531 15.65625 33.476562 15.855469 33.644531 16.019531 C 33.8125 16.183594 34.011719 16.265625 34.246094 16.265625 C 34.480469 16.265625 34.679688 16.183594 34.847656 16.019531 C 35.011719 15.855469 35.097656 15.65625 35.101562 15.421875 L 35.101562 12.15625 Z M 33.386719 12.15625 L 33.386719 15.421875 C 33.394531 15.65625 33.476562 15.855469 33.644531 16.019531 C 33.8125 16.183594 34.011719 16.265625 34.246094 16.265625 C 34.480469 16.265625 34.679688 16.183594 34.847656 16.019531 C 35.011719 15.855469 35.097656 15.65625 35.101562 15.421875 L 35.101562 12.15625 Z M 25.148438 12.15625 L 25.148438 15.683594 C 25.152344 15.917969 25.234375 16.117188 25.402344 16.28125 C 25.566406 16.445312 25.769531 16.527344 26.003906 16.527344 C 26.238281 16.527344 26.4375 16.445312 26.601562 16.28125 C 26.769531 16.117188 26.851562 15.917969 26.855469 15.683594 L 26.855469 12.15625 Z M 16.902344 12.15625 L 16.902344 15.421875 C 16.902344 15.660156 16.984375 15.863281 17.152344 16.027344 C 17.320312 16.195312 17.523438 16.28125 17.757812 16.28125 C 17.996094 16.28125 18.199219 16.195312 18.363281 16.027344 C 18.53125 15.863281 18.617188 15.660156 18.617188 15.421875 L 18.617188 12.15625 Z M 16.902344 12.15625 L 16.902344 15.421875 C 16.902344 15.660156 16.984375 15.863281 17.152344 16.027344 C 17.320312 16.195312 17.523438 16.28125 17.757812 16.28125 C 17.996094 16.28125 18.199219 16.195312 18.363281 16.027344 C 18.53125 15.863281 18.617188 15.660156 18.617188 15.421875 L 18.617188 12.15625 Z M 25.148438 12.15625 L 25.148438 15.683594 C 25.152344 15.917969 25.234375 16.117188 25.402344 16.28125 C 25.566406 16.445312 25.769531 16.527344 26.003906 16.527344 C 26.238281 16.527344 26.4375 16.445312 26.601562 16.28125 C 26.769531 16.117188 26.851562 15.917969 26.855469 15.683594 L 26.855469 12.15625 Z M 33.386719 12.15625 L 33.386719 15.421875 C 33.394531 15.65625 33.476562 15.855469 33.644531 16.019531 C 33.8125 16.183594 34.011719 16.265625 34.246094 16.265625 C 34.480469 16.265625 34.679688 16.183594 34.847656 16.019531 C 35.011719 15.855469 35.097656 15.65625 35.101562 15.421875 L 35.101562 12.15625 Z M 33.386719 12.15625 L 33.386719 15.421875 C 33.394531 15.65625 33.476562 15.855469 33.644531 16.019531 C 33.8125 16.183594 34.011719 16.265625 34.246094 16.265625 C 34.480469 16.265625 34.679688 16.183594 34.847656 16.019531 C 35.011719 15.855469 35.097656 15.65625 35.101562 15.421875 L 35.101562 12.15625 Z M 25.148438 12.15625 L 25.148438 15.683594 C 25.152344 15.917969 25.234375 16.117188 25.402344 16.28125 C 25.566406 16.445312 25.769531 16.527344 26.003906 16.527344 C 26.238281 16.527344 26.4375 16.445312 26.601562 16.28125 C 26.769531 16.117188 26.851562 15.917969 26.855469 15.683594 L 26.855469 12.15625 Z M 16.902344 12.15625 L 16.902344 15.421875 C 16.902344 15.660156 16.984375 15.863281 17.152344 16.027344 C 17.320312 16.195312 17.523438 16.28125 17.757812 16.28125 C 17.996094 16.28125 18.199219 16.195312 18.363281 16.027344 C 18.53125 15.863281 18.617188 15.660156 18.617188 15.421875 L 18.617188 12.15625 Z M 16.902344 12.15625 L 16.902344 15.421875 C 16.902344 15.660156 16.984375 15.863281 17.152344 16.027344 C 17.320312 16.195312 17.523438 16.28125 17.757812 16.28125 C 17.996094 16.28125 18.199219 16.195312 18.363281 16.027344 C 18.53125 15.863281 18.617188 15.660156 18.617188 15.421875 L 18.617188 12.15625 Z M 25.148438 12.15625 L 25.148438 15.683594 C 25.152344 15.917969 25.234375 16.117188 25.402344 16.28125 C 25.566406 16.445312 25.769531 16.527344 26.003906 16.527344 C 26.238281 16.527344 26.4375 16.445312 26.601562 16.28125 C 26.769531 16.117188 26.851562 15.917969 26.855469 15.683594 L 26.855469 12.15625 Z M 33.386719 12.15625 L 33.386719 15.421875 C 33.394531 15.65625 33.476562 15.855469 33.644531 16.019531 C 33.8125 16.183594 34.011719 16.265625 34.246094 16.265625 C 34.480469 16.265625 34.679688 16.183594 34.847656 16.019531 C 35.011719 15.855469 35.097656 15.65625 35.101562 15.421875 L 35.101562 12.15625 Z M 33.386719 12.15625 L 33.386719 15.421875 C 33.394531 15.65625 33.476562 15.855469 33.644531 16.019531 C 33.8125 16.183594 34.011719 16.265625 34.246094 16.265625 C 34.480469 16.265625 34.679688 16.183594 34.847656 16.019531 C 35.011719 15.855469 35.097656 15.65625 35.101562 15.421875 L 35.101562 12.15625 Z M 25.148438 12.15625 L 25.148438 15.683594 C 25.152344 15.917969 25.234375 16.117188 25.402344 16.28125 C 25.566406 16.445312 25.769531 16.527344 26.003906 16.527344 C 26.238281 16.527344 26.4375 16.445312 26.601562 16.28125 C 26.769531 16.117188 26.851562 15.917969 26.855469 15.683594 L 26.855469 12.15625 Z M 16.902344 12.15625 L 16.902344 15.421875 C 16.902344 15.660156 16.984375 15.863281 17.152344 16.027344 C 17.320312 16.195312 17.523438 16.28125 17.757812 16.28125 C 17.996094 16.28125 18.199219 16.195312 18.363281 16.027344 C 18.53125 15.863281 18.617188 15.660156 18.617188 15.421875 L 18.617188 12.15625 Z M 16.902344 12.15625 L 16.902344 15.421875 C 16.902344 15.660156 16.984375 15.863281 17.152344 16.027344 C 17.320312 16.195312 17.523438 16.28125 17.757812 16.28125 C 17.996094 16.28125 18.199219 16.195312 18.363281 16.027344 C 18.53125 15.863281 18.617188 15.660156 18.617188 15.421875 L 18.617188 12.15625 Z M 25.148438 12.15625 L 25.148438 15.683594 C 25.152344 15.917969 25.234375 16.117188 25.402344 16.28125 C 25.566406 16.445312 25.769531 16.527344 26.003906 16.527344 C 26.238281 16.527344 26.4375 16.445312 26.601562 16.28125 C 26.769531 16.117188 26.851562 15.917969 26.855469 15.683594 L 26.855469 12.15625 Z M 33.386719 12.15625 L 33.386719 15.421875 C 33.394531 15.65625 33.476562 15.855469 33.644531 16.019531 C 33.8125 16.183594 34.011719 16.265625 34.246094 16.265625 C 34.480469 16.265625 34.679688 16.183594 34.847656 16.019531 C 35.011719 15.855469 35.097656 15.65625 35.101562 15.421875 L 35.101562 12.15625 Z M 33.386719 12.15625 L 33.386719 15.421875 C 33.394531 15.65625 33.476562 15.855469 33.644531 16.019531 C 33.8125 16.183594 34.011719 16.265625 34.246094 16.265625 C 34.480469 16.265625 34.679688 16.183594 34.847656 16.019531 C 35.011719 15.855469 35.097656 15.65625 35.101562 15.421875 L 35.101562 12.15625 Z M 25.148438 12.15625 L 25.148438 15.683594 C 25.152344 15.917969 25.234375 16.117188 25.402344 16.28125 C 25.566406 16.445312 25.769531 16.527344 26.003906 16.527344 C 26.238281 16.527344 26.4375 16.445312 26.601562 16.28125 C 26.769531 16.117188 26.851562 15.917969 26.855469 15.683594 L 26.855469 12.15625 Z M 16.902344 12.15625 L 16.902344 15.421875 C 16.902344 15.660156 16.984375 15.863281 17.152344 16.027344 C 17.320312 16.195312 17.523438 16.28125 17.757812 16.28125 C 17.996094 16.28125 18.199219 16.195312 18.363281 16.027344 C 18.53125 15.863281 18.617188 15.660156 18.617188 15.421875 L 18.617188 12.15625 Z M 16.902344 12.15625 L 16.902344 15.421875 C 16.902344 15.660156 16.984375 15.863281 17.152344 16.027344 C 17.320312 16.195312 17.523438 16.28125 17.757812 16.28125 C 17.996094 16.28125 18.199219 16.195312 18.363281 16.027344 C 18.53125 15.863281 18.617188 15.660156 18.617188 15.421875 L 18.617188 12.15625 Z M 25.148438 12.15625 L 25.148438 15.683594 C 25.152344 15.917969 25.234375 16.117188 25.402344 16.28125 C 25.566406 16.445312 25.769531 16.527344 26.003906 16.527344 C 26.238281 16.527344 26.4375 16.445312 26.601562 16.28125 C 26.769531 16.117188 26.851562 15.917969 26.855469 15.683594 L 26.855469 12.15625 Z M 33.386719 12.15625 L 33.386719 15.421875 C 33.394531 15.65625 33.476562 15.855469 33.644531 16.019531 C 33.8125 16.183594 34.011719 16.265625 34.246094 16.265625 C 34.480469 16.265625 34.679688 16.183594 34.847656 16.019531 C 35.011719 15.855469 35.097656 15.65625 35.101562 15.421875 L 35.101562 12.15625 Z M 33.386719 12.15625 L 33.386719 15.421875 C 33.394531 15.65625 33.476562 15.855469 33.644531 16.019531 C 33.8125 16.183594 34.011719 16.265625 34.246094 16.265625 C 34.480469 16.265625 34.679688 16.183594 34.847656 16.019531 C 35.011719 15.855469 35.097656 15.65625 35.101562 15.421875 L 35.101562 12.15625 Z M 25.148438 12.15625 L 25.148438 15.683594 C 25.152344 15.917969 25.234375 16.117188 25.402344 16.28125 C 25.566406 16.445312 25.769531 16.527344 26.003906 16.527344 C 26.238281 16.527344 26.4375 16.445312 26.601562 16.28125 C 26.769531 16.117188 26.851562 15.917969 26.855469 15.683594 L 26.855469 12.15625 Z M 16.902344 12.15625 L 16.902344 15.421875 C 16.902344 15.660156 16.984375 15.863281 17.152344 16.027344 C 17.320312 16.195312 17.523438 16.28125 17.757812 16.28125 C 17.996094 16.28125 18.199219 16.195312 18.363281 16.027344 C 18.53125 15.863281 18.617188 15.660156 18.617188 15.421875 L 18.617188 12.15625 Z M 16.902344 12.15625 L 16.902344 15.421875 C 16.902344 15.660156 16.984375 15.863281 17.152344 16.027344 C 17.320312 16.195312 17.523438 16.28125 17.757812 16.28125 C 17.996094 16.28125 18.199219 16.195312 18.363281 16.027344 C 18.53125 15.863281 18.617188 15.660156 18.617188 15.421875 L 18.617188 12.15625 Z M 25.148438 12.15625 L 25.148438 15.683594 C 25.152344 15.917969 25.234375 16.117188 25.402344 16.28125 C 25.566406 16.445312 25.769531 16.527344 26.003906 16.527344 C 26.238281 16.527344 26.4375 16.445312 26.601562 16.28125 C 26.769531 16.117188 26.851562 15.917969 26.855469 15.683594 L 26.855469 12.15625 Z M 33.386719 12.15625 L 33.386719 15.421875 C 33.394531 15.65625 33.476562 15.855469 33.644531 16.019531 C 33.8125 16.183594 34.011719 16.265625 34.246094 16.265625 C 34.480469 16.265625 34.679688 16.183594 34.847656 16.019531 C 35.011719 15.855469 35.097656 15.65625 35.101562 15.421875 L 35.101562 12.15625 Z M 33.386719 12.15625 L 33.386719 15.421875 C 33.394531 15.65625 33.476562 15.855469 33.644531 16.019531 C 33.8125 16.183594 34.011719 16.265625 34.246094 16.265625 C 34.480469 16.265625 34.679688 16.183594 34.847656 16.019531 C 35.011719 15.855469 35.097656 15.65625 35.101562 15.421875 L 35.101562 12.15625 Z M 25.148438 12.15625 L 25.148438 15.683594 C 25.152344 15.917969 25.234375 16.117188 25.402344 16.28125 C 25.566406 16.445312 25.769531 16.527344 26.003906 16.527344 C 26.238281 16.527344 26.4375 16.445312 26.601562 16.28125 C 26.769531 16.117188 26.851562 15.917969 26.855469 15.683594 L 26.855469 12.15625 Z M 16.902344 12.15625 L 16.902344 15.421875 C 16.902344 15.660156 16.984375 15.863281 17.152344 16.027344 C 17.320312 16.195312 17.523438 16.28125 17.757812 16.28125 C 17.996094 16.28125 18.199219 16.195312 18.363281 16.027344 C 18.53125 15.863281 18.617188 15.660156 18.617188 15.421875 L 18.617188 12.15625 Z M 16.902344 12.15625 L 16.902344 15.421875 C 16.902344 15.660156 16.984375 15.863281 17.152344 16.027344 C 17.320312 16.195312 17.523438 16.28125 17.757812 16.28125 C 17.996094 16.28125 18.199219 16.195312 18.363281 16.027344 C 18.53125 15.863281 18.617188 15.660156 18.617188 15.421875 L 18.617188 12.15625 Z M 25.148438 12.15625 L 25.148438 15.683594 C 25.152344 15.917969 25.234375 16.117188 25.402344 16.28125 C 25.566406 16.445312 25.769531 16.527344 26.003906 16.527344 C 26.238281 16.527344 26.4375 16.445312 26.601562 16.28125 C 26.769531 16.117188 26.851562 15.917969 26.855469 15.683594 L 26.855469 12.15625 Z M 33.386719 12.15625 L 33.386719 15.421875 C 33.394531 15.65625 33.476562 15.855469 33.644531 16.019531 C 33.8125 16.183594 34.011719 16.265625 34.246094 16.265625 C 34.480469 16.265625 34.679688 16.183594 34.847656 16.019531 C 35.011719 15.855469 35.097656 15.65625 35.101562 15.421875 L 35.101562 12.15625 Z M 33.386719 12.15625 L 33.386719 15.421875 C 33.394531 15.65625 33.476562 15.855469 33.644531 16.019531 C 33.8125 16.183594 34.011719 16.265625 34.246094 16.265625 C 34.480469 16.265625 34.679688 16.183594 34.847656 16.019531 C 35.011719 15.855469 35.097656 15.65625 35.101562 15.421875 L 35.101562 12.15625 Z M 25.148438 12.15625 L 25.148438 15.683594 C 25.152344 15.917969 25.234375 16.117188 25.402344 16.28125 C 25.566406 16.445312 25.769531 16.527344 26.003906 16.527344 C 26.238281 16.527344 26.4375 16.445312 26.601562 16.28125 C 26.769531 16.117188 26.851562 15.917969 26.855469 15.683594 L 26.855469 12.15625 Z M 16.902344 12.15625 L 16.902344 15.421875 C 16.902344 15.660156 16.984375 15.863281 17.152344 16.027344 C 17.320312 16.195312 17.523438 16.28125 17.757812 16.28125 C 17.996094 16.28125 18.199219 16.195312 18.363281 16.027344 C 18.53125 15.863281 18.617188 15.660156 18.617188 15.421875 L 18.617188 12.15625 Z M 16.902344 12.15625 L 16.902344 15.421875 C 16.902344 15.660156 16.984375 15.863281 17.152344 16.027344 C 17.320312 16.195312 17.523438 16.28125 17.757812 16.28125 C 17.996094 16.28125 18.199219 16.195312 18.363281 16.027344 C 18.53125 15.863281 18.617188 15.660156 18.617188 15.421875 L 18.617188 12.15625 Z M 25.148438 12.15625 L 25.148438 15.683594 C 25.152344 15.917969 25.234375 16.117188 25.402344 16.28125 C 25.566406 16.445312 25.769531 16.527344 26.003906 16.527344 C 26.238281 16.527344 26.4375 16.445312 26.601562 16.28125 C 26.769531 16.117188 26.851562 15.917969 26.855469 15.683594 L 26.855469 12.15625 Z M 33.386719 12.15625 L 33.386719 15.421875 C 33.394531 15.65625 33.476562 15.855469 33.644531 16.019531 C 33.8125 16.183594 34.011719 16.265625 34.246094 16.265625 C 34.480469 16.265625 34.679688 16.183594 34.847656 16.019531 C 35.011719 15.855469 35.097656 15.65625 35.101562 15.421875 L 35.101562 12.15625 Z M 33.386719 12.15625 L 33.386719 15.421875 C 33.394531 15.65625 33.476562 15.855469 33.644531 16.019531 C 33.8125 16.183594 34.011719 16.265625 34.246094 16.265625 C 34.480469 16.265625 34.679688 16.183594 34.847656 16.019531 C 35.011719 15.855469 35.097656 15.65625 35.101562 15.421875 L 35.101562 12.15625 Z M 25.148438 12.15625 L 25.148438 15.683594 C 25.152344 15.917969 25.234375 16.117188 25.402344 16.28125 C 25.566406 16.445312 25.769531 16.527344 26.003906 16.527344 C 26.238281 16.527344 26.4375 16.445312 26.601562 16.28125 C 26.769531 16.117188 26.851562 15.917969 26.855469 15.683594 L 26.855469 12.15625 Z M 16.902344 12.15625 L 16.902344 15.421875 C 16.902344 15.660156 16.984375 15.863281 17.152344 16.027344 C 17.320312 16.195312 17.523438 16.28125 17.757812 16.28125 C 17.996094 16.28125 18.199219 16.195312 18.363281 16.027344 C 18.53125 15.863281 18.617188 15.660156 18.617188 15.421875 L 18.617188 12.15625 Z M 16.902344 12.15625 L 16.902344 15.421875 C 16.902344 15.660156 16.984375 15.863281 17.152344 16.027344 C 17.320312 16.195312 17.523438 16.28125 17.757812 16.28125 C 17.996094 16.28125 18.199219 16.195312 18.363281 16.027344 C 18.53125 15.863281 18.617188 15.660156 18.617188 15.421875 L 18.617188 12.15625 Z M 25.148438 12.15625 L 25.148438 15.683594 C 25.152344 15.917969 25.234375 16.117188 25.402344 16.28125 C 25.566406 16.445312 25.769531 16.527344 26.003906 16.527344 C 26.238281 16.527344 26.4375 16.445312 26.601562 16.28125 C 26.769531 16.117188 26.851562 15.917969 26.855469 15.683594 L 26.855469 12.15625 Z M 33.386719 12.15625 L 33.386719 15.421875 C 33.394531 15.65625 33.476562 15.855469 33.644531 16.019531 C 33.8125 16.183594 34.011719 16.265625 34.246094 16.265625 C 34.480469 16.265625 34.679688 16.183594 34.847656 16.019531 C 35.011719 15.855469 35.097656 15.65625 35.101562 15.421875 L 35.101562 12.15625 Z M 33.386719 12.15625 L 33.386719 15.421875 C 33.394531 15.65625 33.476562 15.855469 33.644531 16.019531 C 33.8125 16.183594 34.011719 16.265625 34.246094 16.265625 C 34.480469 16.265625 34.679688 16.183594 34.847656 16.019531 C 35.011719 15.855469 35.097656 15.65625 35.101562 15.421875 L 35.101562 12.15625 Z M 25.148438 12.15625 L 25.148438 15.683594 C 25.152344 15.917969 25.234375 16.117188 25.402344 16.28125 C 25.566406 16.445312 25.769531 16.527344 26.003906 16.527344 C 26.238281 16.527344 26.4375 16.445312 26.601562 16.28125 C 26.769531 16.117188 26.851562 15.917969 26.855469 15.683594 L 26.855469 12.15625 Z M 16.902344 12.15625 L 16.902344 15.421875 C 16.902344 15.660156 16.984375 15.863281 17.152344 16.027344 C 17.320312 16.195312 17.523438 16.28125 17.757812 16.28125 C 17.996094 16.28125 18.199219 16.195312 18.363281 16.027344 C 18.53125 15.863281 18.617188 15.660156 18.617188 15.421875 L 18.617188 12.15625 Z M 16.902344 12.15625 L 16.902344 15.421875 C 16.902344 15.660156 16.984375 15.863281 17.152344 16.027344 C 17.320312 16.195312 17.523438 16.28125 17.757812 16.28125 C 17.996094 16.28125 18.199219 16.195312 18.363281 16.027344 C 18.53125 15.863281 18.617188 15.660156 18.617188 15.421875 L 18.617188 12.15625 Z M 25.148438 12.15625 L 25.148438 15.683594 C 25.152344 15.917969 25.234375 16.117188 25.402344 16.28125 C 25.566406 16.445312 25.769531 16.527344 26.003906 16.527344 C 26.238281 16.527344 26.4375 16.445312 26.601562 16.28125 C 26.769531 16.117188 26.851562 15.917969 26.855469 15.683594 L 26.855469 12.15625 Z M 33.386719 12.15625 L 33.386719 15.421875 C 33.394531 15.65625 33.476562 15.855469 33.644531 16.019531 C 33.8125 16.183594 34.011719 16.265625 34.246094 16.265625 C 34.480469 16.265625 34.679688 16.183594 34.847656 16.019531 C 35.011719 15.855469 35.097656 15.65625 35.101562 15.421875 L 35.101562 12.15625 Z M 33.386719 12.15625 L 33.386719 15.421875 C 33.394531 15.65625 33.476562 15.855469 33.644531 16.019531 C 33.8125 16.183594 34.011719 16.265625 34.246094 16.265625 C 34.480469 16.265625 34.679688 16.183594 34.847656 16.019531 C 35.011719 15.855469 35.097656 15.65625 35.101562 15.421875 L 35.101562 12.15625 Z M 25.148438 12.15625 L 25.148438 15.683594 C 25.152344 15.917969 25.234375 16.117188 25.402344 16.28125 C 25.566406 16.445312 25.769531 16.527344 26.003906 16.527344 C 26.238281 16.527344 26.4375 16.445312 26.601562 16.28125 C 26.769531 16.117188 26.851562 15.917969 26.855469 15.683594 L 26.855469 12.15625 Z M 16.902344 12.15625 L 16.902344 15.421875 C 16.902344 15.660156 16.984375 15.863281 17.152344 16.027344 C 17.320312 16.195312 17.523438 16.28125 17.757812 16.28125 C 17.996094 16.28125 18.199219 16.195312 18.363281 16.027344 C 18.53125 15.863281 18.617188 15.660156 18.617188 15.421875 L 18.617188 12.15625 Z M 16.902344 12.15625 L 16.902344 15.421875 C 16.902344 15.660156 16.984375 15.863281 17.152344 16.027344 C 17.320312 16.195312 17.523438 16.28125 17.757812 16.28125 C 17.996094 16.28125 18.199219 16.195312 18.363281 16.027344 C 18.53125 15.863281 18.617188 15.660156 18.617188 15.421875 L 18.617188 12.15625 Z M 25.148438 12.15625 L 25.148438 15.683594 C 25.152344 15.917969 25.234375 16.117188 25.402344 16.28125 C 25.566406 16.445312 25.769531 16.527344 26.003906 16.527344 C 26.238281 16.527344 26.4375 16.445312 26.601562 16.28125 C 26.769531 16.117188 26.851562 15.917969 26.855469 15.683594 L 26.855469 12.15625 Z M 33.386719 12.15625 L 33.386719 15.421875 C 33.394531 15.65625 33.476562 15.855469 33.644531 16.019531 C 33.8125 16.183594 34.011719 16.265625 34.246094 16.265625 C 34.480469 16.265625 34.679688 16.183594 34.847656 16.019531 C 35.011719 15.855469 35.097656 15.65625 35.101562 15.421875 L 35.101562 12.15625 Z M 33.386719 12.15625 L 33.386719 15.421875 C 33.394531 15.65625 33.476562 15.855469 33.644531 16.019531 C 33.8125 16.183594 34.011719 16.265625 34.246094 16.265625 C 34.480469 16.265625 34.679688 16.183594 34.847656 16.019531 C 35.011719 15.855469 35.097656 15.65625 35.101562 15.421875 L 35.101562 12.15625 Z M 25.148438 15.683594 C 25.152344 15.917969 25.234375 16.117188 25.402344 16.28125 C 25.566406 16.445312 25.769531 16.527344 26.003906 16.527344 C 26.238281 16.527344 26.4375 16.445312 26.601562 16.28125 C 26.769531 16.117188 26.851562 15.917969 26.855469 15.683594 L 26.855469 12.15625 L 25.148438 12.15625 Z M 16.902344 15.421875 C 16.902344 15.660156 16.984375 15.863281 17.152344 16.027344 C 17.320312 16.195312 17.523438 16.28125 17.757812 16.28125 C 17.996094 16.28125 18.199219 16.195312 18.363281 16.027344 C 18.53125 15.863281 18.617188 15.660156 18.617188 15.421875 L 18.617188 12.15625 L 16.902344 12.15625 Z M 26.003906 0 C 25.152344 0 24.300781 0.0429688 23.453125 0.125 C 22.605469 0.207031 21.765625 0.332031 20.929688 0.5 C 20.09375 0.664062 19.269531 0.871094 18.453125 1.121094 C 17.640625 1.367188 16.839844 1.652344 16.050781 1.980469 C 15.265625 2.304688 14.496094 2.667969 13.746094 3.070312 C 12.992188 3.472656 12.265625 3.910156 11.554688 4.382812 C 10.847656 4.855469 10.164062 5.363281 9.507812 5.902344 C 8.847656 6.441406 8.21875 7.015625 7.617188 7.617188 C 7.015625 8.21875 6.441406 8.847656 5.902344 9.507812 C 5.363281 10.164062 4.855469 10.847656 4.382812 11.554688 C 3.910156 12.265625 3.472656 12.992188 3.070312 13.746094 C 2.667969 14.496094 2.304688 15.265625 1.980469 16.050781 C 1.652344 16.839844 1.367188 17.640625 1.121094 18.453125 C 0.871094 19.269531 0.664062 20.09375 0.5 20.929688 C 0.332031 21.765625 0.207031 22.605469 0.125 23.453125 C 0.0429688 24.300781 0 25.152344 0 26.003906 C 0 26.855469 0.0429688 27.703125 0.125 28.550781 C 0.207031 29.398438 0.332031 30.238281 0.5 31.074219 C 0.664062 31.910156 0.871094 32.734375 1.121094 33.550781 C 1.367188 34.367188 1.652344 35.167969 1.980469 35.953125 C 2.304688 36.738281 2.667969 37.507812 3.070312 38.261719 C 3.472656 39.011719 3.910156 39.742188 4.382812 40.449219 C 4.855469 41.15625 5.363281 41.839844 5.902344 42.5 C 6.441406 43.15625 7.015625 43.785156 7.617188 44.390625 C 8.21875 44.992188 8.847656 45.5625 9.507812 46.101562 C 10.164062 46.644531 10.847656 47.148438 11.554688 47.621094 C 12.265625 48.09375 12.992188 48.53125 13.746094 48.933594 C 14.496094 49.335938 15.265625 49.699219 16.050781 50.027344 C 16.839844 50.351562 17.640625 50.636719 18.453125 50.886719 C 19.269531 51.132812 20.09375 51.339844 20.929688 51.503906 C 21.765625 51.671875 22.605469 51.796875 23.453125 51.878906 C 24.300781 51.964844 25.152344 52.003906 26.003906 52.003906 C 26.855469 52.003906 27.703125 51.964844 28.550781 51.878906 C 29.398438 51.796875 30.238281 51.671875 31.074219 51.503906 C 31.910156 51.339844 32.734375 51.132812 33.550781 50.886719 C 34.367188 50.636719 35.167969 50.351562 35.953125 50.027344 C 36.738281 49.699219 37.507812 49.335938 38.261719 48.933594 C 39.011719 48.53125 39.742188 48.09375 40.449219 47.621094 C 41.15625 47.148438 41.839844 46.644531 42.5 46.101562 C 43.15625 45.5625 43.785156 44.992188 44.390625 44.390625 C 44.992188 43.785156 45.5625 43.15625 46.101562 42.5 C 46.644531 41.839844 47.148438 41.15625 47.621094 40.449219 C 48.09375 39.742188 48.53125 39.011719 48.933594 38.261719 C 49.335938 37.507812 49.699219 36.738281 50.027344 35.953125 C 50.351562 35.167969 50.636719 34.367188 50.886719 33.550781 C 51.132812 32.734375 51.339844 31.910156 51.503906 31.074219 C 51.671875 30.238281 51.796875 29.398438 51.878906 28.550781 C 51.964844 27.703125 52.003906 26.855469 52.003906 26.003906 C 52.003906 25.152344 51.960938 24.300781 51.878906 23.453125 C 51.796875 22.605469 51.671875 21.765625 51.503906 20.929688 C 51.339844 20.09375 51.132812 19.269531 50.882812 18.453125 C 50.636719 17.640625 50.351562 16.839844 50.023438 16.050781 C 49.699219 15.265625 49.335938 14.496094 48.933594 13.746094 C 48.53125 12.996094 48.09375 12.265625 47.621094 11.558594 C 47.148438 10.847656 46.640625 10.164062 46.101562 9.507812 C 45.5625 8.847656 44.988281 8.21875 44.386719 7.617188 C 43.785156 7.015625 43.15625 6.445312 42.496094 5.902344 C 41.839844 5.363281 41.15625 4.855469 40.449219 4.382812 C 39.738281 3.910156 39.011719 3.472656 38.257812 3.070312 C 37.507812 2.667969 36.738281 2.304688 35.953125 1.980469 C 35.164062 1.652344 34.363281 1.367188 33.550781 1.121094 C 32.734375 0.875 31.910156 0.667969 31.074219 0.5 C 30.238281 0.332031 29.398438 0.210938 28.550781 0.125 C 27.703125 0.0429688 26.855469 0 26.003906 0 Z M 42.253906 37.980469 C 42.253906 38.261719 42.226562 38.539062 42.171875 38.8125 C 42.117188 39.089844 42.035156 39.355469 41.929688 39.617188 C 41.820312 39.875 41.6875 40.121094 41.535156 40.355469 C 41.378906 40.585938 41.199219 40.804688 41.003906 41.003906 C 40.804688 41.199219 40.585938 41.378906 40.355469 41.535156 C 40.121094 41.6875 39.875 41.820312 39.617188 41.929688 C 39.355469 42.035156 39.089844 42.117188 38.8125 42.171875 C 38.539062 42.226562 38.261719 42.253906 37.980469 42.253906 L 14.023438 42.253906 C 13.746094 42.253906 13.464844 42.226562 13.191406 42.171875 C 12.914062 42.117188 12.648438 42.035156 12.390625 41.929688 C 12.128906 41.820312 11.882812 41.6875 11.652344 41.535156 C 11.417969 41.378906 11.203125 41.199219 11.003906 41.003906 C 10.804688 40.804688 10.628906 40.585938 10.472656 40.355469 C 10.316406 40.121094 10.183594 39.875 10.078125 39.617188 C 9.96875 39.355469 9.886719 39.089844 9.832031 38.8125 C 9.777344 38.539062 9.75 38.261719 9.75 37.980469 L 9.75 20.265625 L 42.253906 20.265625 Z M 42.253906 18.550781 L 9.75 18.550781 L 9.75 16.4375 C 9.75 16.15625 9.777344 15.878906 9.832031 15.605469 C 9.886719 15.328125 9.96875 15.0625 10.078125 14.800781 C 10.183594 14.542969 10.316406 14.296875 10.472656 14.0625 C 10.628906 13.828125 10.804688 13.613281 11.003906 13.414062 C 11.203125 13.214844 11.417969 13.039062 11.652344 12.882812 C 11.882812 12.726562 12.128906 12.59375 12.390625 12.484375 C 12.648438 12.378906 12.914062 12.296875 13.191406 12.242188 C 13.464844 12.183594 13.746094 12.15625 14.023438 12.15625 L 16.902344 12.15625 L 16.902344 10.613281 C 16.902344 10.378906 16.988281 10.175781 17.15625 10.011719 C 17.324219 9.847656 17.523438 9.765625 17.757812 9.765625 C 17.992188 9.765625 18.195312 9.847656 18.363281 10.011719 C 18.527344 10.175781 18.613281 10.378906 18.617188 10.613281 L 18.617188 12.15625 L 25.148438 12.15625 L 25.148438 10.871094 C 25.148438 10.636719 25.234375 10.433594 25.398438 10.269531 C 25.566406 10.101562 25.765625 10.019531 26.003906 10.019531 C 26.238281 10.019531 26.4375 10.101562 26.605469 10.269531 C 26.773438 10.433594 26.855469 10.636719 26.855469 10.871094 L 26.855469 12.15625 L 33.386719 12.15625 L 33.386719 10.613281 C 33.390625 10.378906 33.476562 10.175781 33.644531 10.011719 C 33.808594 9.847656 34.011719 9.765625 34.246094 9.765625 C 34.480469 9.765625 34.683594 9.847656 34.847656 10.011719 C 35.015625 10.175781 35.101562 10.378906 35.101562 10.613281 L 35.101562 12.15625 L 37.980469 12.15625 C 38.261719 12.15625 38.539062 12.183594 38.8125 12.242188 C 39.089844 12.296875 39.355469 12.378906 39.617188 12.484375 C 39.875 12.59375 40.121094 12.726562 40.355469 12.882812 C 40.585938 13.039062 40.804688 13.214844 41 13.414062 C 41.199219 13.613281 41.375 13.828125 41.53125 14.0625 C 41.6875 14.296875 41.820312 14.542969 41.925781 14.800781 C 42.035156 15.0625 42.117188 15.328125 42.171875 15.605469 C 42.226562 15.878906 42.253906 16.15625 42.253906 16.4375 Z M 35.101562 15.421875 L 35.101562 12.15625 L 33.386719 12.15625 L 33.386719 15.421875 C 33.394531 15.65625 33.476562 15.855469 33.644531 16.019531 C 33.8125 16.183594 34.011719 16.265625 34.246094 16.265625 C 34.480469 16.265625 34.679688 16.183594 34.847656 16.019531 C 35.011719 15.855469 35.097656 15.65625 35.101562 15.421875 Z M 26.855469 15.683594 L 26.855469 12.15625 L 25.148438 12.15625 L 25.148438 15.683594 C 25.152344 15.917969 25.234375 16.117188 25.402344 16.28125 C 25.566406 16.445312 25.769531 16.527344 26.003906 16.527344 C 26.238281 16.527344 26.4375 16.445312 26.601562 16.28125 C 26.769531 16.117188 26.851562 15.917969 26.855469 15.683594 Z M 17.753906 16.277344 C 17.992188 16.277344 18.191406 16.191406 18.359375 16.027344 C 18.527344 15.859375 18.613281 15.660156 18.617188 15.421875 L 18.617188 12.15625 L 16.902344 12.15625 L 16.902344 15.421875 C 16.902344 15.660156 16.984375 15.859375 17.152344 16.027344 C 17.316406 16.191406 17.519531 16.277344 17.753906 16.277344 Z M 16.902344 12.15625 L 16.902344 15.421875 C 16.902344 15.660156 16.984375 15.863281 17.152344 16.027344 C 17.320312 16.195312 17.523438 16.28125 17.757812 16.28125 C 17.996094 16.28125 18.199219 16.195312 18.363281 16.027344 C 18.53125 15.863281 18.617188 15.660156 18.617188 15.421875 L 18.617188 12.15625 Z M 25.148438 12.15625 L 25.148438 15.683594 C 25.152344 15.917969 25.234375 16.117188 25.402344 16.28125 C 25.566406 16.445312 25.769531 16.527344 26.003906 16.527344 C 26.238281 16.527344 26.4375 16.445312 26.601562 16.28125 C 26.769531 16.117188 26.851562 15.917969 26.855469 15.683594 L 26.855469 12.15625 Z M 33.386719 12.15625 L 33.386719 15.421875 C 33.394531 15.65625 33.476562 15.855469 33.644531 16.019531 C 33.8125 16.183594 34.011719 16.265625 34.246094 16.265625 C 34.480469 16.265625 34.679688 16.183594 34.847656 16.019531 C 35.011719 15.855469 35.097656 15.65625 35.101562 15.421875 L 35.101562 12.15625 Z M 33.386719 12.15625 L 33.386719 15.421875 C 33.394531 15.65625 33.476562 15.855469 33.644531 16.019531 C 33.8125 16.183594 34.011719 16.265625 34.246094 16.265625 C 34.480469 16.265625 34.679688 16.183594 34.847656 16.019531 C 35.011719 15.855469 35.097656 15.65625 35.101562 15.421875 L 35.101562 12.15625 Z M 25.148438 12.15625 L 25.148438 15.683594 C 25.152344 15.917969 25.234375 16.117188 25.402344 16.28125 C 25.566406 16.445312 25.769531 16.527344 26.003906 16.527344 C 26.238281 16.527344 26.4375 16.445312 26.601562 16.28125 C 26.769531 16.117188 26.851562 15.917969 26.855469 15.683594 L 26.855469 12.15625 Z M 16.902344 12.15625 L 16.902344 15.421875 C 16.902344 15.660156 16.984375 15.863281 17.152344 16.027344 C 17.320312 16.195312 17.523438 16.28125 17.757812 16.28125 C 17.996094 16.28125 18.199219 16.195312 18.363281 16.027344 C 18.53125 15.863281 18.617188 15.660156 18.617188 15.421875 L 18.617188 12.15625 Z M 16.902344 12.15625 L 16.902344 15.421875 C 16.902344 15.660156 16.984375 15.863281 17.152344 16.027344 C 17.320312 16.195312 17.523438 16.28125 17.757812 16.28125 C 17.996094 16.28125 18.199219 16.195312 18.363281 16.027344 C 18.53125 15.863281 18.617188 15.660156 18.617188 15.421875 L 18.617188 12.15625 Z M 25.148438 12.15625 L 25.148438 15.683594 C 25.152344 15.917969 25.234375 16.117188 25.402344 16.28125 C 25.566406 16.445312 25.769531 16.527344 26.003906 16.527344 C 26.238281 16.527344 26.4375 16.445312 26.601562 16.28125 C 26.769531 16.117188 26.851562 15.917969 26.855469 15.683594 L 26.855469 12.15625 Z M 33.386719 12.15625 L 33.386719 15.421875 C 33.394531 15.65625 33.476562 15.855469 33.644531 16.019531 C 33.8125 16.183594 34.011719 16.265625 34.246094 16.265625 C 34.480469 16.265625 34.679688 16.183594 34.847656 16.019531 C 35.011719 15.855469 35.097656 15.65625 35.101562 15.421875 L 35.101562 12.15625 Z M 33.386719 12.15625 L 33.386719 15.421875 C 33.394531 15.65625 33.476562 15.855469 33.644531 16.019531 C 33.8125 16.183594 34.011719 16.265625 34.246094 16.265625 C 34.480469 16.265625 34.679688 16.183594 34.847656 16.019531 C 35.011719 15.855469 35.097656 15.65625 35.101562 15.421875 L 35.101562 12.15625 Z M 25.148438 12.15625 L 25.148438 15.683594 C 25.152344 15.917969 25.234375 16.117188 25.402344 16.28125 C 25.566406 16.445312 25.769531 16.527344 26.003906 16.527344 C 26.238281 16.527344 26.4375 16.445312 26.601562 16.28125 C 26.769531 16.117188 26.851562 15.917969 26.855469 15.683594 L 26.855469 12.15625 Z M 16.902344 12.15625 L 16.902344 15.421875 C 16.902344 15.660156 16.984375 15.863281 17.152344 16.027344 C 17.320312 16.195312 17.523438 16.28125 17.757812 16.28125 C 17.996094 16.28125 18.199219 16.195312 18.363281 16.027344 C 18.53125 15.863281 18.617188 15.660156 18.617188 15.421875 L 18.617188 12.15625 Z M 16.902344 12.15625 L 16.902344 15.421875 C 16.902344 15.660156 16.984375 15.863281 17.152344 16.027344 C 17.320312 16.195312 17.523438 16.28125 17.757812 16.28125 C 17.996094 16.28125 18.199219 16.195312 18.363281 16.027344 C 18.53125 15.863281 18.617188 15.660156 18.617188 15.421875 L 18.617188 12.15625 Z M 25.148438 12.15625 L 25.148438 15.683594 C 25.152344 15.917969 25.234375 16.117188 25.402344 16.28125 C 25.566406 16.445312 25.769531 16.527344 26.003906 16.527344 C 26.238281 16.527344 26.4375 16.445312 26.601562 16.28125 C 26.769531 16.117188 26.851562 15.917969 26.855469 15.683594 L 26.855469 12.15625 Z M 33.386719 12.15625 L 33.386719 15.421875 C 33.394531 15.65625 33.476562 15.855469 33.644531 16.019531 C 33.8125 16.183594 34.011719 16.265625 34.246094 16.265625 C 34.480469 16.265625 34.679688 16.183594 34.847656 16.019531 C 35.011719 15.855469 35.097656 15.65625 35.101562 15.421875 L 35.101562 12.15625 Z M 33.386719 12.15625 L 33.386719 15.421875 C 33.394531 15.65625 33.476562 15.855469 33.644531 16.019531 C 33.8125 16.183594 34.011719 16.265625 34.246094 16.265625 C 34.480469 16.265625 34.679688 16.183594 34.847656 16.019531 C 35.011719 15.855469 35.097656 15.65625 35.101562 15.421875 L 35.101562 12.15625 Z M 25.148438 12.15625 L 25.148438 15.683594 C 25.152344 15.917969 25.234375 16.117188 25.402344 16.28125 C 25.566406 16.445312 25.769531 16.527344 26.003906 16.527344 C 26.238281 16.527344 26.4375 16.445312 26.601562 16.28125 C 26.769531 16.117188 26.851562 15.917969 26.855469 15.683594 L 26.855469 12.15625 Z M 16.902344 12.15625 L 16.902344 15.421875 C 16.902344 15.660156 16.984375 15.863281 17.152344 16.027344 C 17.320312 16.195312 17.523438 16.28125 17.757812 16.28125 C 17.996094 16.28125 18.199219 16.195312 18.363281 16.027344 C 18.53125 15.863281 18.617188 15.660156 18.617188 15.421875 L 18.617188 12.15625 Z M 16.902344 12.15625 L 16.902344 15.421875 C 16.902344 15.660156 16.984375 15.863281 17.152344 16.027344 C 17.320312 16.195312 17.523438 16.28125 17.757812 16.28125 C 17.996094 16.28125 18.199219 16.195312 18.363281 16.027344 C 18.53125 15.863281 18.617188 15.660156 18.617188 15.421875 L 18.617188 12.15625 Z M 25.148438 12.15625 L 25.148438 15.683594 C 25.152344 15.917969 25.234375 16.117188 25.402344 16.28125 C 25.566406 16.445312 25.769531 16.527344 26.003906 16.527344 C 26.238281 16.527344 26.4375 16.445312 26.601562 16.28125 C 26.769531 16.117188 26.851562 15.917969 26.855469 15.683594 L 26.855469 12.15625 Z M 33.386719 12.15625 L 33.386719 15.421875 C 33.394531 15.65625 33.476562 15.855469 33.644531 16.019531 C 33.8125 16.183594 34.011719 16.265625 34.246094 16.265625 C 34.480469 16.265625 34.679688 16.183594 34.847656 16.019531 C 35.011719 15.855469 35.097656 15.65625 35.101562 15.421875 L 35.101562 12.15625 Z M 33.386719 12.15625 L 33.386719 15.421875 C 33.394531 15.65625 33.476562 15.855469 33.644531 16.019531 C 33.8125 16.183594 34.011719 16.265625 34.246094 16.265625 C 34.480469 16.265625 34.679688 16.183594 34.847656 16.019531 C 35.011719 15.855469 35.097656 15.65625 35.101562 15.421875 L 35.101562 12.15625 Z M 25.148438 12.15625 L 25.148438 15.683594 C 25.152344 15.917969 25.234375 16.117188 25.402344 16.28125 C 25.566406 16.445312 25.769531 16.527344 26.003906 16.527344 C 26.238281 16.527344 26.4375 16.445312 26.601562 16.28125 C 26.769531 16.117188 26.851562 15.917969 26.855469 15.683594 L 26.855469 12.15625 Z M 16.902344 12.15625 L 16.902344 15.421875 C 16.902344 15.660156 16.984375 15.863281 17.152344 16.027344 C 17.320312 16.195312 17.523438 16.28125 17.757812 16.28125 C 17.996094 16.28125 18.199219 16.195312 18.363281 16.027344 C 18.53125 15.863281 18.617188 15.660156 18.617188 15.421875 L 18.617188 12.15625 Z M 16.902344 12.15625 L 16.902344 15.421875 C 16.902344 15.660156 16.984375 15.863281 17.152344 16.027344 C 17.320312 16.195312 17.523438 16.28125 17.757812 16.28125 C 17.996094 16.28125 18.199219 16.195312 18.363281 16.027344 C 18.53125 15.863281 18.617188 15.660156 18.617188 15.421875 L 18.617188 12.15625 Z M 25.148438 12.15625 L 25.148438 15.683594 C 25.152344 15.917969 25.234375 16.117188 25.402344 16.28125 C 25.566406 16.445312 25.769531 16.527344 26.003906 16.527344 C 26.238281 16.527344 26.4375 16.445312 26.601562 16.28125 C 26.769531 16.117188 26.851562 15.917969 26.855469 15.683594 L 26.855469 12.15625 Z M 33.386719 12.15625 L 33.386719 15.421875 C 33.394531 15.65625 33.476562 15.855469 33.644531 16.019531 C 33.8125 16.183594 34.011719 16.265625 34.246094 16.265625 C 34.480469 16.265625 34.679688 16.183594 34.847656 16.019531 C 35.011719 15.855469 35.097656 15.65625 35.101562 15.421875 L 35.101562 12.15625 Z M 33.386719 12.15625 L 33.386719 15.421875 C 33.394531 15.65625 33.476562 15.855469 33.644531 16.019531 C 33.8125 16.183594 34.011719 16.265625 34.246094 16.265625 C 34.480469 16.265625 34.679688 16.183594 34.847656 16.019531 C 35.011719 15.855469 35.097656 15.65625 35.101562 15.421875 L 35.101562 12.15625 Z M 25.148438 12.15625 L 25.148438 15.683594 C 25.152344 15.917969 25.234375 16.117188 25.402344 16.28125 C 25.566406 16.445312 25.769531 16.527344 26.003906 16.527344 C 26.238281 16.527344 26.4375 16.445312 26.601562 16.28125 C 26.769531 16.117188 26.851562 15.917969 26.855469 15.683594 L 26.855469 12.15625 Z M 16.902344 12.15625 L 16.902344 15.421875 C 16.902344 15.660156 16.984375 15.863281 17.152344 16.027344 C 17.320312 16.195312 17.523438 16.28125 17.757812 16.28125 C 17.996094 16.28125 18.199219 16.195312 18.363281 16.027344 C 18.53125 15.863281 18.617188 15.660156 18.617188 15.421875 L 18.617188 12.15625 Z M 16.902344 12.15625 L 16.902344 15.421875 C 16.902344 15.660156 16.984375 15.863281 17.152344 16.027344 C 17.320312 16.195312 17.523438 16.28125 17.757812 16.28125 C 17.996094 16.28125 18.199219 16.195312 18.363281 16.027344 C 18.53125 15.863281 18.617188 15.660156 18.617188 15.421875 L 18.617188 12.15625 Z M 25.148438 12.15625 L 25.148438 15.683594 C 25.152344 15.917969 25.234375 16.117188 25.402344 16.28125 C 25.566406 16.445312 25.769531 16.527344 26.003906 16.527344 C 26.238281 16.527344 26.4375 16.445312 26.601562 16.28125 C 26.769531 16.117188 26.851562 15.917969 26.855469 15.683594 L 26.855469 12.15625 Z M 33.386719 12.15625 L 33.386719 15.421875 C 33.394531 15.65625 33.476562 15.855469 33.644531 16.019531 C 33.8125 16.183594 34.011719 16.265625 34.246094 16.265625 C 34.480469 16.265625 34.679688 16.183594 34.847656 16.019531 C 35.011719 15.855469 35.097656 15.65625 35.101562 15.421875 L 35.101562 12.15625 Z M 33.386719 12.15625 L 33.386719 15.421875 C 33.394531 15.65625 33.476562 15.855469 33.644531 16.019531 C 33.8125 16.183594 34.011719 16.265625 34.246094 16.265625 C 34.480469 16.265625 34.679688 16.183594 34.847656 16.019531 C 35.011719 15.855469 35.097656 15.65625 35.101562 15.421875 L 35.101562 12.15625 Z M 25.148438 12.15625 L 25.148438 15.683594 C 25.152344 15.917969 25.234375 16.117188 25.402344 16.28125 C 25.566406 16.445312 25.769531 16.527344 26.003906 16.527344 C 26.238281 16.527344 26.4375 16.445312 26.601562 16.28125 C 26.769531 16.117188 26.851562 15.917969 26.855469 15.683594 L 26.855469 12.15625 Z M 16.902344 12.15625 L 16.902344 15.421875 C 16.902344 15.660156 16.984375 15.863281 17.152344 16.027344 C 17.320312 16.195312 17.523438 16.28125 17.757812 16.28125 C 17.996094 16.28125 18.199219 16.195312 18.363281 16.027344 C 18.53125 15.863281 18.617188 15.660156 18.617188 15.421875 L 18.617188 12.15625 Z M 16.902344 12.15625 L 16.902344 15.421875 C 16.902344 15.660156 16.984375 15.863281 17.152344 16.027344 C 17.320312 16.195312 17.523438 16.28125 17.757812 16.28125 C 17.996094 16.28125 18.199219 16.195312 18.363281 16.027344 C 18.53125 15.863281 18.617188 15.660156 18.617188 15.421875 L 18.617188 12.15625 Z M 25.148438 12.15625 L 25.148438 15.683594 C 25.152344 15.917969 25.234375 16.117188 25.402344 16.28125 C 25.566406 16.445312 25.769531 16.527344 26.003906 16.527344 C 26.238281 16.527344 26.4375 16.445312 26.601562 16.28125 C 26.769531 16.117188 26.851562 15.917969 26.855469 15.683594 L 26.855469 12.15625 Z M 33.386719 12.15625 L 33.386719 15.421875 C 33.394531 15.65625 33.476562 15.855469 33.644531 16.019531 C 33.8125 16.183594 34.011719 16.265625 34.246094 16.265625 C 34.480469 16.265625 34.679688 16.183594 34.847656 16.019531 C 35.011719 15.855469 35.097656 15.65625 35.101562 15.421875 L 35.101562 12.15625 Z M 33.386719 12.15625 L 33.386719 15.421875 C 33.394531 15.65625 33.476562 15.855469 33.644531 16.019531 C 33.8125 16.183594 34.011719 16.265625 34.246094 16.265625 C 34.480469 16.265625 34.679688 16.183594 34.847656 16.019531 C 35.011719 15.855469 35.097656 15.65625 35.101562 15.421875 L 35.101562 12.15625 Z M 25.148438 12.15625 L 25.148438 15.683594 C 25.152344 15.917969 25.234375 16.117188 25.402344 16.28125 C 25.566406 16.445312 25.769531 16.527344 26.003906 16.527344 C 26.238281 16.527344 26.4375 16.445312 26.601562 16.28125 C 26.769531 16.117188 26.851562 15.917969 26.855469 15.683594 L 26.855469 12.15625 Z M 16.902344 12.15625 L 16.902344 15.421875 C 16.902344 15.660156 16.984375 15.863281 17.152344 16.027344 C 17.320312 16.195312 17.523438 16.28125 17.757812 16.28125 C 17.996094 16.28125 18.199219 16.195312 18.363281 16.027344 C 18.53125 15.863281 18.617188 15.660156 18.617188 15.421875 L 18.617188 12.15625 Z M 16.902344 12.15625 L 16.902344 15.421875 C 16.902344 15.660156 16.984375 15.863281 17.152344 16.027344 C 17.320312 16.195312 17.523438 16.28125 17.757812 16.28125 C 17.996094 16.28125 18.199219 16.195312 18.363281 16.027344 C 18.53125 15.863281 18.617188 15.660156 18.617188 15.421875 L 18.617188 12.15625 Z M 25.148438 12.15625 L 25.148438 15.683594 C 25.152344 15.917969 25.234375 16.117188 25.402344 16.28125 C 25.566406 16.445312 25.769531 16.527344 26.003906 16.527344 C 26.238281 16.527344 26.4375 16.445312 26.601562 16.28125 C 26.769531 16.117188 26.851562 15.917969 26.855469 15.683594 L 26.855469 12.15625 Z M 33.386719 12.15625 L 33.386719 15.421875 C 33.394531 15.65625 33.476562 15.855469 33.644531 16.019531 C 33.8125 16.183594 34.011719 16.265625 34.246094 16.265625 C 34.480469 16.265625 34.679688 16.183594 34.847656 16.019531 C 35.011719 15.855469 35.097656 15.65625 35.101562 15.421875 L 35.101562 12.15625 Z M 33.386719 12.15625 L 33.386719 15.421875 C 33.394531 15.65625 33.476562 15.855469 33.644531 16.019531 C 33.8125 16.183594 34.011719 16.265625 34.246094 16.265625 C 34.480469 16.265625 34.679688 16.183594 34.847656 16.019531 C 35.011719 15.855469 35.097656 15.65625 35.101562 15.421875 L 35.101562 12.15625 Z M 25.148438 12.15625 L 25.148438 15.683594 C 25.152344 15.917969 25.234375 16.117188 25.402344 16.28125 C 25.566406 16.445312 25.769531 16.527344 26.003906 16.527344 C 26.238281 16.527344 26.4375 16.445312 26.601562 16.28125 C 26.769531 16.117188 26.851562 15.917969 26.855469 15.683594 L 26.855469 12.15625 Z M 16.902344 12.15625 L 16.902344 15.421875 C 16.902344 15.660156 16.984375 15.863281 17.152344 16.027344 C 17.320312 16.195312 17.523438 16.28125 17.757812 16.28125 C 17.996094 16.28125 18.199219 16.195312 18.363281 16.027344 C 18.53125 15.863281 18.617188 15.660156 18.617188 15.421875 L 18.617188 12.15625 Z M 16.902344 12.15625 L 16.902344 15.421875 C 16.902344 15.660156 16.984375 15.863281 17.152344 16.027344 C 17.320312 16.195312 17.523438 16.28125 17.757812 16.28125 C 17.996094 16.28125 18.199219 16.195312 18.363281 16.027344 C 18.53125 15.863281 18.617188 15.660156 18.617188 15.421875 L 18.617188 12.15625 Z M 25.148438 12.15625 L 25.148438 15.683594 C 25.152344 15.917969 25.234375 16.117188 25.402344 16.28125 C 25.566406 16.445312 25.769531 16.527344 26.003906 16.527344 C 26.238281 16.527344 26.4375 16.445312 26.601562 16.28125 C 26.769531 16.117188 26.851562 15.917969 26.855469 15.683594 L 26.855469 12.15625 Z M 33.386719 12.15625 L 33.386719 15.421875 C 33.394531 15.65625 33.476562 15.855469 33.644531 16.019531 C 33.8125 16.183594 34.011719 16.265625 34.246094 16.265625 C 34.480469 16.265625 34.679688 16.183594 34.847656 16.019531 C 35.011719 15.855469 35.097656 15.65625 35.101562 15.421875 L 35.101562 12.15625 Z M 33.386719 12.15625 L 33.386719 15.421875 C 33.394531 15.65625 33.476562 15.855469 33.644531 16.019531 C 33.8125 16.183594 34.011719 16.265625 34.246094 16.265625 C 34.480469 16.265625 34.679688 16.183594 34.847656 16.019531 C 35.011719 15.855469 35.097656 15.65625 35.101562 15.421875 L 35.101562 12.15625 Z M 25.148438 12.15625 L 25.148438 15.683594 C 25.152344 15.917969 25.234375 16.117188 25.402344 16.28125 C 25.566406 16.445312 25.769531 16.527344 26.003906 16.527344 C 26.238281 16.527344 26.4375 16.445312 26.601562 16.28125 C 26.769531 16.117188 26.851562 15.917969 26.855469 15.683594 L 26.855469 12.15625 Z M 16.902344 12.15625 L 16.902344 15.421875 C 16.902344 15.660156 16.984375 15.863281 17.152344 16.027344 C 17.320312 16.195312 17.523438 16.28125 17.757812 16.28125 C 17.996094 16.28125 18.199219 16.195312 18.363281 16.027344 C 18.53125 15.863281 18.617188 15.660156 18.617188 15.421875 L 18.617188 12.15625 Z M 16.902344 12.15625 L 16.902344 15.421875 C 16.902344 15.660156 16.984375 15.863281 17.152344 16.027344 C 17.320312 16.195312 17.523438 16.28125 17.757812 16.28125 C 17.996094 16.28125 18.199219 16.195312 18.363281 16.027344 C 18.53125 15.863281 18.617188 15.660156 18.617188 15.421875 L 18.617188 12.15625 Z M 25.148438 12.15625 L 25.148438 15.683594 C 25.152344 15.917969 25.234375 16.117188 25.402344 16.28125 C 25.566406 16.445312 25.769531 16.527344 26.003906 16.527344 C 26.238281 16.527344 26.4375 16.445312 26.601562 16.28125 C 26.769531 16.117188 26.851562 15.917969 26.855469 15.683594 L 26.855469 12.15625 Z M 33.386719 12.15625 L 33.386719 15.421875 C 33.394531 15.65625 33.476562 15.855469 33.644531 16.019531 C 33.8125 16.183594 34.011719 16.265625 34.246094 16.265625 C 34.480469 16.265625 34.679688 16.183594 34.847656 16.019531 C 35.011719 15.855469 35.097656 15.65625 35.101562 15.421875 L 35.101562 12.15625 Z M 33.386719 12.15625 L 33.386719 15.421875 C 33.394531 15.65625 33.476562 15.855469 33.644531 16.019531 C 33.8125 16.183594 34.011719 16.265625 34.246094 16.265625 C 34.480469 16.265625 34.679688 16.183594 34.847656 16.019531 C 35.011719 15.855469 35.097656 15.65625 35.101562 15.421875 L 35.101562 12.15625 Z M 25.148438 12.15625 L 25.148438 15.683594 C 25.152344 15.917969 25.234375 16.117188 25.402344 16.28125 C 25.566406 16.445312 25.769531 16.527344 26.003906 16.527344 C 26.238281 16.527344 26.4375 16.445312 26.601562 16.28125 C 26.769531 16.117188 26.851562 15.917969 26.855469 15.683594 L 26.855469 12.15625 Z M 16.902344 12.15625 L 16.902344 15.421875 C 16.902344 15.660156 16.984375 15.863281 17.152344 16.027344 C 17.320312 16.195312 17.523438 16.28125 17.757812 16.28125 C 17.996094 16.28125 18.199219 16.195312 18.363281 16.027344 C 18.53125 15.863281 18.617188 15.660156 18.617188 15.421875 L 18.617188 12.15625 Z M 16.902344 12.15625 L 16.902344 15.421875 C 16.902344 15.660156 16.984375 15.863281 17.152344 16.027344 C 17.320312 16.195312 17.523438 16.28125 17.757812 16.28125 C 17.996094 16.28125 18.199219 16.195312 18.363281 16.027344 C 18.53125 15.863281 18.617188 15.660156 18.617188 15.421875 L 18.617188 12.15625 Z M 25.148438 12.15625 L 25.148438 15.683594 C 25.152344 15.917969 25.234375 16.117188 25.402344 16.28125 C 25.566406 16.445312 25.769531 16.527344 26.003906 16.527344 C 26.238281 16.527344 26.4375 16.445312 26.601562 16.28125 C 26.769531 16.117188 26.851562 15.917969 26.855469 15.683594 L 26.855469 12.15625 Z M 33.386719 12.15625 L 33.386719 15.421875 C 33.394531 15.65625 33.476562 15.855469 33.644531 16.019531 C 33.8125 16.183594 34.011719 16.265625 34.246094 16.265625 C 34.480469 16.265625 34.679688 16.183594 34.847656 16.019531 C 35.011719 15.855469 35.097656 15.65625 35.101562 15.421875 L 35.101562 12.15625 Z M 33.386719 12.15625 L 33.386719 15.421875 C 33.394531 15.65625 33.476562 15.855469 33.644531 16.019531 C 33.8125 16.183594 34.011719 16.265625 34.246094 16.265625 C 34.480469 16.265625 34.679688 16.183594 34.847656 16.019531 C 35.011719 15.855469 35.097656 15.65625 35.101562 15.421875 L 35.101562 12.15625 Z M 25.148438 12.15625 L 25.148438 15.683594 C 25.152344 15.917969 25.234375 16.117188 25.402344 16.28125 C 25.566406 16.445312 25.769531 16.527344 26.003906 16.527344 C 26.238281 16.527344 26.4375 16.445312 26.601562 16.28125 C 26.769531 16.117188 26.851562 15.917969 26.855469 15.683594 L 26.855469 12.15625 Z M 16.902344 12.15625 L 16.902344 15.421875 C 16.902344 15.660156 16.984375 15.863281 17.152344 16.027344 C 17.320312 16.195312 17.523438 16.28125 17.757812 16.28125 C 17.996094 16.28125 18.199219 16.195312 18.363281 16.027344 C 18.53125 15.863281 18.617188 15.660156 18.617188 15.421875 L 18.617188 12.15625 Z M 16.902344 12.15625 L 16.902344 15.421875 C 16.902344 15.660156 16.984375 15.863281 17.152344 16.027344 C 17.320312 16.195312 17.523438 16.28125 17.757812 16.28125 C 17.996094 16.28125 18.199219 16.195312 18.363281 16.027344 C 18.53125 15.863281 18.617188 15.660156 18.617188 15.421875 L 18.617188 12.15625 Z M 25.148438 12.15625 L 25.148438 15.683594 C 25.152344 15.917969 25.234375 16.117188 25.402344 16.28125 C 25.566406 16.445312 25.769531 16.527344 26.003906 16.527344 C 26.238281 16.527344 26.4375 16.445312 26.601562 16.28125 C 26.769531 16.117188 26.851562 15.917969 26.855469 15.683594 L 26.855469 12.15625 Z M 33.386719 12.15625 L 33.386719 15.421875 C 33.394531 15.65625 33.476562 15.855469 33.644531 16.019531 C 33.8125 16.183594 34.011719 16.265625 34.246094 16.265625 C 34.480469 16.265625 34.679688 16.183594 34.847656 16.019531 C 35.011719 15.855469 35.097656 15.65625 35.101562 15.421875 L 35.101562 12.15625 Z M 33.386719 12.15625 L 33.386719 15.421875 C 33.394531 15.65625 33.476562 15.855469 33.644531 16.019531 C 33.8125 16.183594 34.011719 16.265625 34.246094 16.265625 C 34.480469 16.265625 34.679688 16.183594 34.847656 16.019531 C 35.011719 15.855469 35.097656 15.65625 35.101562 15.421875 L 35.101562 12.15625 Z M 25.148438 12.15625 L 25.148438 15.683594 C 25.152344 15.917969 25.234375 16.117188 25.402344 16.28125 C 25.566406 16.445312 25.769531 16.527344 26.003906 16.527344 C 26.238281 16.527344 26.4375 16.445312 26.601562 16.28125 C 26.769531 16.117188 26.851562 15.917969 26.855469 15.683594 L 26.855469 12.15625 Z M 16.902344 12.15625 L 16.902344 15.421875 C 16.902344 15.660156 16.984375 15.863281 17.152344 16.027344 C 17.320312 16.195312 17.523438 16.28125 17.757812 16.28125 C 17.996094 16.28125 18.199219 16.195312 18.363281 16.027344 C 18.53125 15.863281 18.617188 15.660156 18.617188 15.421875 L 18.617188 12.15625 Z M 16.902344 12.15625 L 16.902344 15.421875 C 16.902344 15.660156 16.984375 15.863281 17.152344 16.027344 C 17.320312 16.195312 17.523438 16.28125 17.757812 16.28125 C 17.996094 16.28125 18.199219 16.195312 18.363281 16.027344 C 18.53125 15.863281 18.617188 15.660156 18.617188 15.421875 L 18.617188 12.15625 Z M 25.148438 12.15625 L 25.148438 15.683594 C 25.152344 15.917969 25.234375 16.117188 25.402344 16.28125 C 25.566406 16.445312 25.769531 16.527344 26.003906 16.527344 C 26.238281 16.527344 26.4375 16.445312 26.601562 16.28125 C 26.769531 16.117188 26.851562 15.917969 26.855469 15.683594 L 26.855469 12.15625 Z M 33.386719 12.15625 L 33.386719 15.421875 C 33.394531 15.65625 33.476562 15.855469 33.644531 16.019531 C 33.8125 16.183594 34.011719 16.265625 34.246094 16.265625 C 34.480469 16.265625 34.679688 16.183594 34.847656 16.019531 C 35.011719 15.855469 35.097656 15.65625 35.101562 15.421875 L 35.101562 12.15625 Z M 33.386719 12.15625 L 33.386719 15.421875 C 33.394531 15.65625 33.476562 15.855469 33.644531 16.019531 C 33.8125 16.183594 34.011719 16.265625 34.246094 16.265625 C 34.480469 16.265625 34.679688 16.183594 34.847656 16.019531 C 35.011719 15.855469 35.097656 15.65625 35.101562 15.421875 L 35.101562 12.15625 Z M 25.148438 12.15625 L 25.148438 15.683594 C 25.152344 15.917969 25.234375 16.117188 25.402344 16.28125 C 25.566406 16.445312 25.769531 16.527344 26.003906 16.527344 C 26.238281 16.527344 26.4375 16.445312 26.601562 16.28125 C 26.769531 16.117188 26.851562 15.917969 26.855469 15.683594 L 26.855469 12.15625 Z M 16.902344 12.15625 L 16.902344 15.421875 C 16.902344 15.660156 16.984375 15.863281 17.152344 16.027344 C 17.320312 16.195312 17.523438 16.28125 17.757812 16.28125 C 17.996094 16.28125 18.199219 16.195312 18.363281 16.027344 C 18.53125 15.863281 18.617188 15.660156 18.617188 15.421875 L 18.617188 12.15625 Z M 16.902344 12.15625 L 16.902344 15.421875 C 16.902344 15.660156 16.984375 15.863281 17.152344 16.027344 C 17.320312 16.195312 17.523438 16.28125 17.757812 16.28125 C 17.996094 16.28125 18.199219 16.195312 18.363281 16.027344 C 18.53125 15.863281 18.617188 15.660156 18.617188 15.421875 L 18.617188 12.15625 Z M 25.148438 12.15625 L 25.148438 15.683594 C 25.152344 15.917969 25.234375 16.117188 25.402344 16.28125 C 25.566406 16.445312 25.769531 16.527344 26.003906 16.527344 C 26.238281 16.527344 26.4375 16.445312 26.601562 16.28125 C 26.769531 16.117188 26.851562 15.917969 26.855469 15.683594 L 26.855469 12.15625 Z M 33.386719 12.15625 L 33.386719 15.421875 C 33.394531 15.65625 33.476562 15.855469 33.644531 16.019531 C 33.8125 16.183594 34.011719 16.265625 34.246094 16.265625 C 34.480469 16.265625 34.679688 16.183594 34.847656 16.019531 C 35.011719 15.855469 35.097656 15.65625 35.101562 15.421875 L 35.101562 12.15625 Z M 33.386719 12.15625 L 33.386719 15.421875 C 33.394531 15.65625 33.476562 15.855469 33.644531 16.019531 C 33.8125 16.183594 34.011719 16.265625 34.246094 16.265625 C 34.480469 16.265625 34.679688 16.183594 34.847656 16.019531 C 35.011719 15.855469 35.097656 15.65625 35.101562 15.421875 L 35.101562 12.15625 Z M 25.148438 12.15625 L 25.148438 15.683594 C 25.152344 15.917969 25.234375 16.117188 25.402344 16.28125 C 25.566406 16.445312 25.769531 16.527344 26.003906 16.527344 C 26.238281 16.527344 26.4375 16.445312 26.601562 16.28125 C 26.769531 16.117188 26.851562 15.917969 26.855469 15.683594 L 26.855469 12.15625 Z M 16.902344 12.15625 L 16.902344 15.421875 C 16.902344 15.660156 16.984375 15.863281 17.152344 16.027344 C 17.320312 16.195312 17.523438 16.28125 17.757812 16.28125 C 17.996094 16.28125 18.199219 16.195312 18.363281 16.027344 C 18.53125 15.863281 18.617188 15.660156 18.617188 15.421875 L 18.617188 12.15625 Z M 16.902344 12.15625 L 16.902344 15.421875 C 16.902344 15.660156 16.984375 15.863281 17.152344 16.027344 C 17.320312 16.195312 17.523438 16.28125 17.757812 16.28125 C 17.996094 16.28125 18.199219 16.195312 18.363281 16.027344 C 18.53125 15.863281 18.617188 15.660156 18.617188 15.421875 L 18.617188 12.15625 Z M 25.148438 12.15625 L 25.148438 15.683594 C 25.152344 15.917969 25.234375 16.117188 25.402344 16.28125 C 25.566406 16.445312 25.769531 16.527344 26.003906 16.527344 C 26.238281 16.527344 26.4375 16.445312 26.601562 16.28125 C 26.769531 16.117188 26.851562 15.917969 26.855469 15.683594 L 26.855469 12.15625 Z M 33.386719 12.15625 L 33.386719 15.421875 C 33.394531 15.65625 33.476562 15.855469 33.644531 16.019531 C 33.8125 16.183594 34.011719 16.265625 34.246094 16.265625 C 34.480469 16.265625 34.679688 16.183594 34.847656 16.019531 C 35.011719 15.855469 35.097656 15.65625 35.101562 15.421875 L 35.101562 12.15625 Z M 33.386719 12.15625 L 33.386719 15.421875 C 33.394531 15.65625 33.476562 15.855469 33.644531 16.019531 C 33.8125 16.183594 34.011719 16.265625 34.246094 16.265625 C 34.480469 16.265625 34.679688 16.183594 34.847656 16.019531 C 35.011719 15.855469 35.097656 15.65625 35.101562 15.421875 L 35.101562 12.15625 Z M 25.148438 12.15625 L 25.148438 15.683594 C 25.152344 15.917969 25.234375 16.117188 25.402344 16.28125 C 25.566406 16.445312 25.769531 16.527344 26.003906 16.527344 C 26.238281 16.527344 26.4375 16.445312 26.601562 16.28125 C 26.769531 16.117188 26.851562 15.917969 26.855469 15.683594 L 26.855469 12.15625 Z M 16.902344 12.15625 L 16.902344 15.421875 C 16.902344 15.660156 16.984375 15.863281 17.152344 16.027344 C 17.320312 16.195312 17.523438 16.28125 17.757812 16.28125 C 17.996094 16.28125 18.199219 16.195312 18.363281 16.027344 C 18.53125 15.863281 18.617188 15.660156 18.617188 15.421875 L 18.617188 12.15625 Z M 16.902344 12.15625 L 16.902344 15.421875 C 16.902344 15.660156 16.984375 15.863281 17.152344 16.027344 C 17.320312 16.195312 17.523438 16.28125 17.757812 16.28125 C 17.996094 16.28125 18.199219 16.195312 18.363281 16.027344 C 18.53125 15.863281 18.617188 15.660156 18.617188 15.421875 L 18.617188 12.15625 Z M 25.148438 12.15625 L 25.148438 15.683594 C 25.152344 15.917969 25.234375 16.117188 25.402344 16.28125 C 25.566406 16.445312 25.769531 16.527344 26.003906 16.527344 C 26.238281 16.527344 26.4375 16.445312 26.601562 16.28125 C 26.769531 16.117188 26.851562 15.917969 26.855469 15.683594 L 26.855469 12.15625 Z M 33.386719 12.15625 L 33.386719 15.421875 C 33.394531 15.65625 33.476562 15.855469 33.644531 16.019531 C 33.8125 16.183594 34.011719 16.265625 34.246094 16.265625 C 34.480469 16.265625 34.679688 16.183594 34.847656 16.019531 C 35.011719 15.855469 35.097656 15.65625 35.101562 15.421875 L 35.101562 12.15625 Z M 33.386719 12.15625 L 33.386719 15.421875 C 33.394531 15.65625 33.476562 15.855469 33.644531 16.019531 C 33.8125 16.183594 34.011719 16.265625 34.246094 16.265625 C 34.480469 16.265625 34.679688 16.183594 34.847656 16.019531 C 35.011719 15.855469 35.097656 15.65625 35.101562 15.421875 L 35.101562 12.15625 Z M 25.148438 12.15625 L 25.148438 15.683594 C 25.152344 15.917969 25.234375 16.117188 25.402344 16.28125 C 25.566406 16.445312 25.769531 16.527344 26.003906 16.527344 C 26.238281 16.527344 26.4375 16.445312 26.601562 16.28125 C 26.769531 16.117188 26.851562 15.917969 26.855469 15.683594 L 26.855469 12.15625 Z M 16.902344 12.15625 L 16.902344 15.421875 C 16.902344 15.660156 16.984375 15.863281 17.152344 16.027344 C 17.320312 16.195312 17.523438 16.28125 17.757812 16.28125 C 17.996094 16.28125 18.199219 16.195312 18.363281 16.027344 C 18.53125 15.863281 18.617188 15.660156 18.617188 15.421875 L 18.617188 12.15625 Z M 16.902344 12.15625 L 16.902344 15.421875 C 16.902344 15.660156 16.984375 15.863281 17.152344 16.027344 C 17.320312 16.195312 17.523438 16.28125 17.757812 16.28125 C 17.996094 16.28125 18.199219 16.195312 18.363281 16.027344 C 18.53125 15.863281 18.617188 15.660156 18.617188 15.421875 L 18.617188 12.15625 Z M 25.148438 12.15625 L 25.148438 15.683594 C 25.152344 15.917969 25.234375 16.117188 25.402344 16.28125 C 25.566406 16.445312 25.769531 16.527344 26.003906 16.527344 C 26.238281 16.527344 26.4375 16.445312 26.601562 16.28125 C 26.769531 16.117188 26.851562 15.917969 26.855469 15.683594 L 26.855469 12.15625 Z M 33.386719 12.15625 L 33.386719 15.421875 C 33.394531 15.65625 33.476562 15.855469 33.644531 16.019531 C 33.8125 16.183594 34.011719 16.265625 34.246094 16.265625 C 34.480469 16.265625 34.679688 16.183594 34.847656 16.019531 C 35.011719 15.855469 35.097656 15.65625 35.101562 15.421875 L 35.101562 12.15625 Z M 33.386719 12.15625 L 33.386719 15.421875 C 33.394531 15.65625 33.476562 15.855469 33.644531 16.019531 C 33.8125 16.183594 34.011719 16.265625 34.246094 16.265625 C 34.480469 16.265625 34.679688 16.183594 34.847656 16.019531 C 35.011719 15.855469 35.097656 15.65625 35.101562 15.421875 L 35.101562 12.15625 Z M 25.148438 12.15625 L 25.148438 15.683594 C 25.152344 15.917969 25.234375 16.117188 25.402344 16.28125 C 25.566406 16.445312 25.769531 16.527344 26.003906 16.527344 C 26.238281 16.527344 26.4375 16.445312 26.601562 16.28125 C 26.769531 16.117188 26.851562 15.917969 26.855469 15.683594 L 26.855469 12.15625 Z M 16.902344 12.15625 L 16.902344 15.421875 C 16.902344 15.660156 16.984375 15.863281 17.152344 16.027344 C 17.320312 16.195312 17.523438 16.28125 17.757812 16.28125 C 17.996094 16.28125 18.199219 16.195312 18.363281 16.027344 C 18.53125 15.863281 18.617188 15.660156 18.617188 15.421875 L 18.617188 12.15625 Z M 16.902344 12.15625 L 16.902344 15.421875 C 16.902344 15.660156 16.984375 15.863281 17.152344 16.027344 C 17.320312 16.195312 17.523438 16.28125 17.757812 16.28125 C 17.996094 16.28125 18.199219 16.195312 18.363281 16.027344 C 18.53125 15.863281 18.617188 15.660156 18.617188 15.421875 L 18.617188 12.15625 Z M 25.148438 12.15625 L 25.148438 15.683594 C 25.152344 15.917969 25.234375 16.117188 25.402344 16.28125 C 25.566406 16.445312 25.769531 16.527344 26.003906 16.527344 C 26.238281 16.527344 26.4375 16.445312 26.601562 16.28125 C 26.769531 16.117188 26.851562 15.917969 26.855469 15.683594 L 26.855469 12.15625 Z M 33.386719 12.15625 L 33.386719 15.421875 C 33.394531 15.65625 33.476562 15.855469 33.644531 16.019531 C 33.8125 16.183594 34.011719 16.265625 34.246094 16.265625 C 34.480469 16.265625 34.679688 16.183594 34.847656 16.019531 C 35.011719 15.855469 35.097656 15.65625 35.101562 15.421875 L 35.101562 12.15625 Z M 33.386719 12.15625 L 33.386719 15.421875 C 33.394531 15.65625 33.476562 15.855469 33.644531 16.019531 C 33.8125 16.183594 34.011719 16.265625 34.246094 16.265625 C 34.480469 16.265625 34.679688 16.183594 34.847656 16.019531 C 35.011719 15.855469 35.097656 15.65625 35.101562 15.421875 L 35.101562 12.15625 Z M 25.148438 12.15625 L 25.148438 15.683594 C 25.152344 15.917969 25.234375 16.117188 25.402344 16.28125 C 25.566406 16.445312 25.769531 16.527344 26.003906 16.527344 C 26.238281 16.527344 26.4375 16.445312 26.601562 16.28125 C 26.769531 16.117188 26.851562 15.917969 26.855469 15.683594 L 26.855469 12.15625 Z M 16.902344 12.15625 L 16.902344 15.421875 C 16.902344 15.660156 16.984375 15.863281 17.152344 16.027344 C 17.320312 16.195312 17.523438 16.28125 17.757812 16.28125 C 17.996094 16.28125 18.199219 16.195312 18.363281 16.027344 C 18.53125 15.863281 18.617188 15.660156 18.617188 15.421875 L 18.617188 12.15625 Z M 16.902344 12.15625 L 16.902344 15.421875 C 16.902344 15.660156 16.984375 15.863281 17.152344 16.027344 C 17.320312 16.195312 17.523438 16.28125 17.757812 16.28125 C 17.996094 16.28125 18.199219 16.195312 18.363281 16.027344 C 18.53125 15.863281 18.617188 15.660156 18.617188 15.421875 L 18.617188 12.15625 Z M 25.148438 12.15625 L 25.148438 15.683594 C 25.152344 15.917969 25.234375 16.117188 25.402344 16.28125 C 25.566406 16.445312 25.769531 16.527344 26.003906 16.527344 C 26.238281 16.527344 26.4375 16.445312 26.601562 16.28125 C 26.769531 16.117188 26.851562 15.917969 26.855469 15.683594 L 26.855469 12.15625 Z M 33.386719 12.15625 L 33.386719 15.421875 C 33.394531 15.65625 33.476562 15.855469 33.644531 16.019531 C 33.8125 16.183594 34.011719 16.265625 34.246094 16.265625 C 34.480469 16.265625 34.679688 16.183594 34.847656 16.019531 C 35.011719 15.855469 35.097656 15.65625 35.101562 15.421875 L 35.101562 12.15625 Z M 33.386719 12.15625 L 33.386719 15.421875 C 33.394531 15.65625 33.476562 15.855469 33.644531 16.019531 C 33.8125 16.183594 34.011719 16.265625 34.246094 16.265625 C 34.480469 16.265625 34.679688 16.183594 34.847656 16.019531 C 35.011719 15.855469 35.097656 15.65625 35.101562 15.421875 L 35.101562 12.15625 Z M 33.386719 12.15625 " fill-opacity="1" fill-rule="nonzero"/></g></svg>