<svg xmlns="http://www.w3.org/2000/svg" xmlns:xlink="http://www.w3.org/1999/xlink" width="70" zoomAndPan="magnify" viewBox="0 0 52.5 52.499999" height="70" preserveAspectRatio="xMidYMid meet" version="1.0"><defs><clipPath id="4c1c32f92f"><path d="M 0 0 L 52.003906 0 L 52.003906 52.003906 L 0 52.003906 Z M 0 0 " clip-rule="nonzero"/></clipPath></defs><g clip-path="url(#4c1c32f92f)"><path fill="#000000" d="M 26 0 C 11.640625 0 0 11.640625 0 26.003906 C 0 40.363281 11.640625 52.003906 26 52.003906 C 40.359375 52.003906 52.003906 40.363281 52.003906 26.003906 C 52.003906 11.640625 40.359375 0 26 0 Z M 39.277344 40.71875 C 39.277344 41.019531 39.21875 41.3125 39.105469 41.59375 C 38.988281 41.875 38.824219 42.121094 38.609375 42.335938 C 38.394531 42.550781 38.148438 42.714844 37.871094 42.832031 C 37.589844 42.949219 37.300781 43.011719 36.996094 43.011719 L 31.425781 43.039062 C 31.121094 43.042969 30.828125 42.984375 30.546875 42.867188 C 30.261719 42.753906 30.011719 42.585938 29.796875 42.371094 C 29.582031 42.15625 29.414062 41.910156 29.296875 41.625 C 29.179688 41.34375 29.121094 41.050781 29.121094 40.746094 L 29.121094 33.558594 C 29.121094 33.253906 29.066406 32.960938 28.945312 32.683594 C 28.816406 32.363281 28.636719 32.070312 28.417969 31.808594 C 28.195312 31.542969 27.9375 31.316406 27.648438 31.132812 C 27.355469 30.949219 27.042969 30.8125 26.710938 30.722656 C 26.375 30.632812 26.039062 30.597656 25.691406 30.613281 C 25.347656 30.628906 25.015625 30.695312 24.691406 30.816406 C 24.367188 30.933594 24.066406 31.101562 23.796875 31.3125 C 23.523438 31.523438 23.289062 31.769531 23.089844 32.054688 C 22.894531 32.339844 22.746094 32.644531 22.644531 32.976562 C 22.574219 33.191406 22.542969 33.414062 22.542969 33.644531 L 22.542969 40.617188 C 22.542969 40.917969 22.484375 41.210938 22.371094 41.488281 C 22.253906 41.769531 22.089844 42.019531 21.875 42.234375 C 21.664062 42.449219 21.414062 42.613281 21.136719 42.730469 C 20.855469 42.847656 20.566406 42.90625 20.261719 42.90625 L 14.699219 42.9375 C 14.394531 42.9375 14.097656 42.878906 13.816406 42.765625 C 13.535156 42.648438 13.285156 42.480469 13.066406 42.265625 C 12.851562 42.050781 12.683594 41.800781 12.570312 41.515625 C 12.453125 41.234375 12.394531 40.941406 12.394531 40.636719 C 12.40625 36.75 12.421875 32.863281 12.433594 28.976562 C 12.4375 28.304688 12.683594 27.746094 13.175781 27.292969 L 24.316406 17.058594 C 24.527344 16.863281 24.765625 16.714844 25.03125 16.613281 C 25.300781 16.507812 25.574219 16.453125 25.863281 16.453125 C 26.148438 16.453125 26.425781 16.503906 26.691406 16.609375 C 26.960938 16.710938 27.199219 16.859375 27.410156 17.050781 C 31.117188 20.429688 34.820312 23.8125 38.527344 27.191406 C 39.027344 27.644531 39.277344 28.207031 39.277344 28.882812 Z M 42.792969 28.582031 L 42.785156 28.582031 C 42.195312 28.582031 41.691406 28.375 41.273438 27.957031 L 27.363281 14.046875 C 27.164062 13.847656 26.929688 13.691406 26.667969 13.582031 C 26.40625 13.472656 26.132812 13.421875 25.851562 13.421875 C 25.566406 13.421875 25.292969 13.472656 25.03125 13.582031 C 24.769531 13.691406 24.535156 13.847656 24.335938 14.046875 L 10.402344 27.957031 C 9.984375 28.375 9.480469 28.582031 8.890625 28.582031 C 6.988281 28.582031 6.03125 26.28125 7.375 24.933594 L 24.375 7.871094 C 24.574219 7.667969 24.808594 7.511719 25.070312 7.402344 C 25.332031 7.292969 25.609375 7.238281 25.894531 7.238281 C 26.175781 7.238281 26.453125 7.292969 26.714844 7.402344 C 26.976562 7.511719 27.210938 7.667969 27.410156 7.871094 L 33.886719 14.40625 L 33.886719 10.832031 C 33.886719 10.617188 33.925781 10.410156 34.007812 10.214844 C 34.089844 10.015625 34.207031 9.839844 34.359375 9.691406 C 34.507812 9.539062 34.683594 9.421875 34.882812 9.339844 C 35.078125 9.257812 35.285156 9.21875 35.5 9.21875 L 36.5625 9.21875 C 36.777344 9.214844 36.984375 9.257812 37.179688 9.339844 C 37.378906 9.421875 37.554688 9.539062 37.703125 9.6875 C 37.855469 9.839844 37.972656 10.015625 38.054688 10.214844 C 38.136719 10.410156 38.175781 10.617188 38.175781 10.832031 L 38.175781 18.746094 L 44.308594 24.9375 C 45.648438 26.289062 44.691406 28.582031 42.789062 28.582031 Z M 42.792969 28.582031 " fill-opacity="1" fill-rule="nonzero"/></g></svg>