<svg xmlns="http://www.w3.org/2000/svg" xmlns:xlink="http://www.w3.org/1999/xlink" width="70" zoomAndPan="magnify" viewBox="0 0 52.5 52.499999" height="70" preserveAspectRatio="xMidYMid meet" version="1.0"><path fill="#000000" d="M 51.796875 25.898438 C 51.796875 26.746094 51.753906 27.59375 51.671875 28.4375 C 51.589844 29.28125 51.464844 30.117188 51.296875 30.949219 C 51.132812 31.78125 50.925781 32.605469 50.679688 33.414062 C 50.433594 34.226562 50.148438 35.023438 49.824219 35.808594 C 49.5 36.59375 49.136719 37.359375 48.738281 38.105469 C 48.339844 38.855469 47.902344 39.582031 47.429688 40.285156 C 46.960938 40.992188 46.457031 41.671875 45.917969 42.328125 C 45.378906 42.984375 44.808594 43.609375 44.210938 44.210938 C 43.609375 44.808594 42.984375 45.378906 42.328125 45.917969 C 41.671875 46.457031 40.992188 46.960938 40.285156 47.429688 C 39.582031 47.902344 38.855469 48.339844 38.105469 48.738281 C 37.359375 49.136719 36.59375 49.5 35.808594 49.824219 C 35.023438 50.148438 34.226562 50.433594 33.414062 50.679688 C 32.605469 50.925781 31.78125 51.132812 30.949219 51.296875 C 30.117188 51.464844 29.28125 51.589844 28.4375 51.671875 C 27.59375 51.753906 26.746094 51.796875 25.898438 51.796875 C 25.050781 51.796875 24.203125 51.753906 23.359375 51.671875 C 22.515625 51.589844 21.675781 51.464844 20.84375 51.296875 C 20.011719 51.132812 19.191406 50.925781 18.378906 50.679688 C 17.570312 50.433594 16.769531 50.148438 15.988281 49.824219 C 15.203125 49.5 14.4375 49.136719 13.691406 48.738281 C 12.941406 48.339844 12.214844 47.902344 11.511719 47.429688 C 10.804688 46.960938 10.125 46.457031 9.46875 45.917969 C 8.8125 45.378906 8.183594 44.808594 7.585938 44.210938 C 6.984375 43.609375 6.417969 42.984375 5.878906 42.328125 C 5.339844 41.671875 4.835938 40.992188 4.363281 40.285156 C 3.894531 39.582031 3.457031 38.855469 3.058594 38.105469 C 2.65625 37.359375 2.296875 36.59375 1.972656 35.808594 C 1.648438 35.023438 1.363281 34.226562 1.113281 33.414062 C 0.867188 32.605469 0.664062 31.78125 0.496094 30.949219 C 0.332031 30.117188 0.207031 29.28125 0.125 28.4375 C 0.0429688 27.59375 0 26.746094 0 25.898438 C 0 25.050781 0.0429688 24.203125 0.125 23.359375 C 0.207031 22.515625 0.332031 21.675781 0.496094 20.84375 C 0.664062 20.011719 0.867188 19.191406 1.113281 18.378906 C 1.363281 17.570312 1.648438 16.769531 1.972656 15.988281 C 2.296875 15.203125 2.65625 14.4375 3.058594 13.691406 C 3.457031 12.941406 3.894531 12.214844 4.363281 11.511719 C 4.835938 10.804688 5.339844 10.125 5.878906 9.46875 C 6.417969 8.8125 6.984375 8.183594 7.585938 7.585938 C 8.183594 6.984375 8.8125 6.417969 9.46875 5.878906 C 10.125 5.339844 10.804688 4.835938 11.511719 4.363281 C 12.214844 3.894531 12.941406 3.457031 13.691406 3.058594 C 14.4375 2.65625 15.203125 2.296875 15.988281 1.972656 C 16.769531 1.648438 17.570312 1.363281 18.378906 1.113281 C 19.191406 0.867188 20.011719 0.664062 20.84375 0.496094 C 21.675781 0.332031 22.515625 0.207031 23.359375 0.125 C 24.203125 0.0429688 25.050781 0 25.898438 0 C 26.746094 0 27.59375 0.0429688 28.4375 0.125 C 29.28125 0.207031 30.117188 0.332031 30.949219 0.496094 C 31.78125 0.664062 32.605469 0.867188 33.414062 1.113281 C 34.226562 1.363281 35.023438 1.648438 35.808594 1.972656 C 36.59375 2.296875 37.359375 2.65625 38.105469 3.058594 C 38.855469 3.457031 39.582031 3.894531 40.285156 4.363281 C 40.992188 4.835938 41.671875 5.339844 42.328125 5.878906 C 42.984375 6.417969 43.609375 6.984375 44.210938 7.585938 C 44.808594 8.183594 45.378906 8.8125 45.917969 9.46875 C 46.457031 10.125 46.960938 10.804688 47.429688 11.511719 C 47.902344 12.214844 48.339844 12.941406 48.738281 13.691406 C 49.136719 14.4375 49.5 15.203125 49.824219 15.988281 C 50.148438 16.769531 50.433594 17.570312 50.679688 18.378906 C 50.925781 19.191406 51.132812 20.011719 51.296875 20.84375 C 51.464844 21.675781 51.589844 22.515625 51.671875 23.359375 C 51.753906 24.203125 51.796875 25.050781 51.796875 25.898438 Z M 51.796875 25.898438 " fill-opacity="1" fill-rule="nonzero"/><path fill="#c1c1c1" d="M 41.90625 40.644531 L 20.089844 40.644531 C 19.777344 40.644531 19.507812 40.390625 19.507812 40.082031 L 19.507812 11.734375 C 19.507812 11.421875 19.777344 11.171875 20.089844 11.171875 L 34.136719 11.171875 L 34.136719 19.195312 C 34.136719 19.371094 34.289062 19.507812 34.445312 19.507812 L 42.488281 19.507812 L 42.488281 40.082031 C 42.488281 40.390625 42.238281 40.644531 41.90625 40.644531 Z M 30.753906 14.707031 C 30.910156 14.707031 31.046875 14.550781 31.046875 14.394531 C 31.046875 14.222656 30.910156 14.085938 30.753906 14.085938 L 24.050781 14.085938 C 23.878906 14.085938 23.742188 14.222656 23.742188 14.394531 C 23.742188 14.550781 23.878906 14.707031 24.050781 14.707031 Z M 38.625 33.125 C 38.796875 33.125 38.933594 32.988281 38.933594 32.8125 C 38.933594 32.640625 38.796875 32.503906 38.625 32.503906 L 31.882812 32.503906 C 31.707031 32.503906 31.570312 32.640625 31.570312 32.8125 C 31.570312 32.988281 31.707031 33.125 31.882812 33.125 Z M 38.625 35.515625 C 38.796875 35.515625 38.933594 35.378906 38.933594 35.203125 C 38.933594 35.046875 38.796875 34.914062 38.625 34.914062 L 31.882812 34.914062 C 31.707031 34.914062 31.570312 35.046875 31.570312 35.203125 C 31.570312 35.378906 31.707031 35.515625 31.882812 35.515625 Z M 28.460938 36.875 C 28.636719 36.875 28.773438 36.71875 28.773438 36.5625 L 28.773438 31.472656 C 28.773438 31.300781 28.636719 31.164062 28.460938 31.164062 L 23.371094 31.164062 C 23.214844 31.164062 23.0625 31.300781 23.0625 31.472656 L 23.0625 36.5625 C 23.0625 36.71875 23.214844 36.875 23.371094 36.875 Z M 23.683594 36.253906 L 23.683594 31.765625 L 28.171875 31.765625 L 28.171875 36.253906 Z M 38.625 24.363281 C 38.796875 24.363281 38.933594 24.226562 38.933594 24.050781 C 38.933594 23.898438 38.796875 23.742188 38.625 23.742188 L 31.882812 23.742188 C 31.707031 23.742188 31.570312 23.898438 31.570312 24.050781 C 31.570312 24.226562 31.707031 24.363281 31.882812 24.363281 Z M 38.625 26.773438 C 38.796875 26.773438 38.933594 26.636719 38.933594 26.460938 C 38.933594 26.285156 38.796875 26.152344 38.625 26.152344 L 31.882812 26.152344 C 31.707031 26.152344 31.570312 26.285156 31.570312 26.460938 C 31.570312 26.636719 31.707031 26.773438 31.882812 26.773438 Z M 28.460938 28.113281 C 28.636719 28.113281 28.773438 27.976562 28.773438 27.800781 L 28.773438 22.710938 C 28.773438 22.535156 28.636719 22.402344 28.460938 22.402344 L 23.371094 22.402344 C 23.214844 22.402344 23.0625 22.535156 23.0625 22.710938 L 23.0625 27.800781 C 23.0625 27.976562 23.214844 28.113281 23.371094 28.113281 Z M 23.683594 27.492188 L 23.683594 23.023438 L 28.171875 23.023438 L 28.171875 27.492188 Z M 30.753906 17.855469 C 30.910156 17.855469 31.046875 17.699219 31.046875 17.542969 C 31.046875 17.367188 30.910156 17.234375 30.753906 17.234375 L 24.050781 17.234375 C 23.878906 17.234375 23.742188 17.367188 23.742188 17.542969 C 23.742188 17.699219 23.878906 17.855469 24.050781 17.855469 Z M 34.757812 11.25 C 34.796875 11.269531 34.835938 11.308594 34.855469 11.328125 L 42.316406 18.789062 C 42.355469 18.824219 42.375 18.84375 42.390625 18.882812 L 34.757812 18.882812 Z M 34.757812 11.25 " fill-opacity="1" fill-rule="evenodd"/><path fill="#c1c1c1" d="M 16.222656 36.136719 L 12.21875 36.136719 C 12.066406 36.136719 11.929688 36.058594 11.8125 35.960938 C 11.714844 35.863281 11.65625 35.710938 11.65625 35.554688 L 11.65625 33.300781 L 16.785156 33.300781 L 16.785156 35.554688 C 16.785156 35.863281 16.535156 36.136719 16.222656 36.136719 Z M 11.65625 32.699219 L 11.65625 32.40625 L 16.785156 27.140625 L 16.785156 32.699219 Z M 11.65625 31.53125 L 11.65625 27.179688 L 16.785156 21.875 L 16.785156 26.246094 Z M 11.65625 26.285156 L 11.65625 18.730469 C 11.65625 18.300781 12.007812 17.953125 12.433594 17.953125 L 15.988281 17.953125 C 16.4375 17.953125 16.785156 18.300781 16.785156 18.730469 L 16.785156 20.984375 Z M 11.65625 26.285156 " fill-opacity="1" fill-rule="evenodd"/><path fill="#c1c1c1" d="M 14.222656 39.691406 C 14.007812 39.691406 13.8125 39.59375 13.714844 39.421875 L 12.238281 36.777344 L 16.183594 36.777344 L 14.707031 39.402344 C 14.609375 39.59375 14.414062 39.691406 14.222656 39.691406 Z M 14.222656 39.691406 " fill-opacity="1" fill-rule="evenodd"/><path fill="#c1c1c1" d="M 12.046875 17.347656 C 12.21875 16.726562 12.785156 16.28125 13.445312 16.28125 L 15 16.28125 C 15.660156 16.28125 16.222656 16.726562 16.378906 17.347656 C 16.261719 17.3125 16.125 17.292969 15.988281 17.292969 L 12.433594 17.292969 C 12.316406 17.292969 12.179688 17.3125 12.046875 17.347656 Z M 12.046875 17.347656 " fill-opacity="1" fill-rule="evenodd"/><path fill="#c1c1c1" d="M 9.890625 27.375 C 9.578125 27.375 9.324219 27.121094 9.324219 26.8125 L 9.324219 21.757812 C 9.324219 20.167969 10.628906 18.863281 12.21875 18.863281 C 12.53125 18.863281 12.785156 19.117188 12.785156 19.429688 C 12.785156 19.738281 12.53125 19.992188 12.21875 19.992188 C 11.25 19.992188 10.453125 20.789062 10.453125 21.757812 L 10.453125 26.8125 C 10.453125 27.121094 10.199219 27.375 9.890625 27.375 Z M 9.890625 27.375 " fill-opacity="1" fill-rule="evenodd"/></svg>