<svg xmlns="http://www.w3.org/2000/svg" xmlns:xlink="http://www.w3.org/1999/xlink" width="161" zoomAndPan="magnify" viewBox="0 0 120.75 116.999995" height="156" preserveAspectRatio="xMidYMid meet" version="1.0"><defs><filter x="0%" y="0%" width="100%" height="100%" id="8e3271427f"><feColorMatrix values="0 0 0 0 1 0 0 0 0 1 0 0 0 0 1 0 0 0 1 0" color-interpolation-filters="sRGB"/></filter><clipPath id="d8900a06d4"><path d="M 0 0.121094 L 120.5 0.121094 L 120.5 95 L 0 95 Z M 0 0.121094 " clip-rule="nonzero"/></clipPath><clipPath id="85a3bc9896"><path d="M 7 110 L 114 110 L 114 116.878906 L 7 116.878906 Z M 7 110 " clip-rule="nonzero"/></clipPath><clipPath id="f21e664de5"><path d="M 29 113 L 74 113 L 74 116.878906 L 29 116.878906 Z M 29 113 " clip-rule="nonzero"/></clipPath><mask id="78c0699726"><g filter="url(#8e3271427f)"><rect x="-12.075" width="144.9" fill="#000000" y="-11.7" height="140.399994" fill-opacity="0.82"/></g></mask><clipPath id="e7c4df40df"><path d="M 0.699219 0.644531 L 44 0.644531 L 44 3.878906 L 0.699219 3.878906 Z M 0.699219 0.644531 " clip-rule="nonzero"/></clipPath><clipPath id="2053f0647a"><rect x="0" width="45" y="0" height="4"/></clipPath></defs><g clip-path="url(#d8900a06d4)"><path fill="#000000" d="M 80.984375 10.773438 C 78.121094 9.585938 74.878906 8.542969 71.261719 7.703125 C 70.046875 7.414062 68.714844 7.183594 67.238281 6.980469 C 63.359375 6.488281 59.484375 6.371094 55.632812 6.660156 C 51.4375 6.980469 47.445312 7.964844 43.511719 9.179688 C 38.910156 10.628906 34.714844 12.59375 30.921875 15.027344 C 25.828125 18.328125 21.371094 22.261719 17.667969 27.097656 C 15.902344 29.382812 14.457031 31.554688 13.300781 33.578125 C 12.429688 35.085938 11.503906 37.023438 10.464844 39.457031 C 10 40.554688 9.566406 41.769531 9.160156 43.101562 C 8.320312 45.9375 7.714844 48.371094 7.367188 50.394531 C 6.757812 53.898438 6.46875 57.253906 6.527344 60.527344 C 6.558594 62.117188 6.703125 64.113281 6.960938 66.515625 C 7.367188 70.222656 8.4375 74.273438 9.738281 77.980469 C 11.15625 82.003906 13.125 85.765625 15.613281 89.265625 C 16.105469 89.933594 16.597656 90.511719 17.0625 91.175781 C 17.117188 91.234375 17.117188 91.320312 17.0625 91.378906 C 16.453125 92.160156 15.730469 93.03125 14.863281 93.957031 C 14.484375 94.359375 14.136719 94.621094 13.792969 94.707031 C 13.210938 94.882812 12.171875 94.851562 11.738281 94.304688 C 9.421875 91.378906 7.484375 88.398438 5.921875 85.070312 C 3.980469 80.960938 2.503906 76.617188 1.492188 72.074219 C 1.203125 70.800781 1 69.527344 0.828125 68.226562 C 0.160156 62.984375 0.0742188 57.921875 0.59375 53.03125 C 0.941406 49.671875 1.636719 46.226562 2.679688 42.695312 C 4.996094 34.796875 8.8125 27.644531 14.195312 21.25 C 18.101562 16.617188 22.617188 12.652344 27.738281 9.671875 C 33.757812 6.113281 39.949219 3.476562 46.664062 1.886719 C 51.988281 0.613281 57.574219 0.121094 63.359375 0.410156 C 70.21875 0.757812 76.757812 2.203125 83.007812 4.78125 C 85.207031 5.679688 87.40625 6.71875 89.578125 7.878906 C 97.566406 12.132812 104.191406 18.210938 109.457031 25.5625 C 110.09375 26.460938 110.761719 27.472656 111.457031 28.601562 C 112.179688 29.789062 112.785156 30.828125 113.277344 31.785156 C 116.316406 37.71875 118.34375 43.59375 119.324219 49.46875 C 120.398438 55.75 120.425781 62.117188 119.441406 68.628906 C 119.210938 70.105469 118.863281 71.84375 118.371094 73.867188 C 116.664062 80.960938 113.507812 87.964844 109.023438 93.753906 C 108.765625 94.101562 108.472656 94.359375 108.183594 94.59375 C 107.78125 94.882812 107.289062 94.796875 106.824219 94.796875 C 106.332031 94.796875 105.929688 94.59375 105.550781 94.1875 C 104.683594 93.261719 103.875 92.304688 103.121094 91.265625 C 103.09375 91.234375 103.09375 91.175781 103.121094 91.148438 C 104.191406 89.847656 105.203125 88.457031 106.101562 87.007812 C 108.589844 82.984375 110.5 78.617188 111.773438 73.984375 C 112.582031 71.03125 113.191406 67.9375 113.507812 64.75 C 113.914062 61.046875 113.945312 57.691406 113.625 54.679688 C 113.308594 51.785156 112.671875 48.542969 111.714844 44.953125 C 111.457031 43.96875 110.847656 42.234375 109.921875 39.714844 C 108.851562 36.851562 107.433594 34.070312 105.695312 31.410156 C 103.757812 28.457031 101.964844 26.113281 100.371094 24.375 C 97.332031 21.105469 94.035156 18.152344 90.273438 15.722656 C 87.207031 13.695312 84.082031 12.046875 80.984375 10.773438 Z M 80.984375 10.773438 " fill-opacity="1" fill-rule="nonzero"/></g><path fill="#000000" d="M 88.824219 32.652344 C 88.824219 32.566406 88.796875 32.539062 88.710938 32.539062 L 87.582031 32.539062 C 87.496094 32.539062 87.4375 32.59375 87.4375 32.683594 L 87.4375 44.113281 C 87.4375 44.230469 87.351562 44.316406 87.234375 44.316406 C 87.207031 44.316406 87.175781 44.316406 87.175781 44.316406 C 85.410156 43.679688 83.761719 42.957031 81.9375 42.347656 C 77.335938 40.730469 72.738281 39.308594 68.136719 38.066406 C 67.007812 37.777344 65.125 37.34375 62.464844 36.792969 C 61.132812 36.53125 59.886719 36.445312 58.671875 36.53125 C 58.035156 36.589844 56.820312 36.820312 55 37.226562 C 50.976562 38.152344 47.300781 39.308594 43.132812 40.613281 C 39.601562 41.710938 36.246094 42.929688 33.0625 44.289062 C 33.035156 44.289062 33.003906 44.289062 32.976562 44.289062 C 32.890625 44.230469 32.859375 44.171875 32.859375 44.085938 C 32.859375 40.671875 32.890625 36.820312 32.890625 32.566406 C 32.890625 32.539062 32.859375 32.507812 32.832031 32.507812 L 31.472656 32.539062 C 31.441406 32.539062 31.414062 32.566406 31.414062 32.59375 L 31.414062 37.023438 C 31.414062 37.140625 31.328125 37.226562 31.210938 37.226562 C 31.152344 37.226562 31.125 37.199219 31.066406 37.167969 C 31.007812 37.109375 30.949219 37.082031 30.894531 37.054688 C 28.550781 36.011719 25.945312 34.824219 23.050781 33.492188 C 22.355469 33.175781 21.632812 32.941406 20.9375 32.625 C 20.417969 32.363281 20.246094 31.957031 20.417969 31.410156 C 20.503906 31.148438 20.707031 30.945312 21.027344 30.773438 C 21.488281 30.539062 21.953125 30.308594 22.414062 30.105469 C 27.566406 27.703125 32.050781 25.679688 35.898438 23.941406 C 37.113281 23.390625 38.273438 22.871094 39.371094 22.378906 C 45.765625 19.457031 52.015625 16.617188 58.152344 13.925781 C 58.644531 13.695312 59.164062 13.492188 59.6875 13.320312 C 59.945312 13.230469 60.179688 13.261719 60.4375 13.347656 C 68.25 16.734375 74.5 19.484375 79.160156 21.625 C 82.027344 22.929688 85.007812 24.171875 87.84375 25.535156 C 91.574219 27.328125 95.335938 29.007812 99.070312 30.773438 C 99.648438 31.03125 99.910156 31.265625 99.851562 31.902344 C 99.792969 32.480469 98.894531 32.828125 98.40625 33.03125 C 95.308594 34.359375 92.183594 35.691406 89.058594 37.082031 C 88.96875 37.109375 88.882812 37.082031 88.855469 36.996094 C 88.855469 36.964844 88.855469 36.964844 88.855469 36.9375 Z M 88.824219 32.652344 " fill-opacity="1" fill-rule="nonzero"/><path fill="#000000" d="M 22.125 47.558594 L 98.171875 47.558594 C 100.023438 47.558594 101.53125 49.0625 101.53125 50.917969 L 101.53125 51.320312 C 101.53125 53.175781 100.023438 54.679688 98.171875 54.679688 L 22.125 54.679688 C 20.273438 54.679688 18.769531 53.175781 18.769531 51.320312 L 18.769531 50.917969 C 18.796875 49.035156 20.300781 47.558594 22.125 47.558594 Z M 22.125 47.558594 " fill-opacity="1" fill-rule="nonzero"/><path fill="#000000" d="M 25.972656 57.398438 L 37.664062 57.429688 C 39.285156 57.429688 40.617188 58.761719 40.617188 60.382812 L 40.617188 60.613281 C 40.617188 62.234375 39.285156 63.566406 37.664062 63.566406 L 25.972656 63.535156 C 24.351562 63.535156 23.023438 62.203125 23.023438 60.582031 L 23.023438 60.351562 C 23.023438 58.703125 24.351562 57.398438 25.972656 57.398438 Z M 25.972656 57.398438 " fill-opacity="1" fill-rule="nonzero"/><path fill="#000000" d="M 49.730469 57.371094 L 70.449219 57.398438 C 72.070312 57.398438 73.402344 58.730469 73.402344 60.351562 L 73.402344 60.582031 C 73.402344 62.203125 72.070312 63.535156 70.449219 63.535156 L 49.730469 63.507812 C 48.109375 63.507812 46.78125 62.175781 46.78125 60.554688 L 46.78125 60.324219 C 46.78125 58.671875 48.109375 57.371094 49.730469 57.371094 Z M 49.730469 57.371094 " fill-opacity="1" fill-rule="nonzero"/><path fill="#000000" d="M 82.519531 57.398438 L 94.179688 57.429688 C 95.800781 57.429688 97.132812 58.761719 97.132812 60.382812 L 97.132812 60.582031 C 97.132812 62.203125 95.800781 63.535156 94.179688 63.535156 L 82.519531 63.507812 C 80.898438 63.507812 79.566406 62.175781 79.566406 60.554688 L 79.566406 60.351562 C 79.535156 58.703125 80.867188 57.398438 82.519531 57.398438 Z M 82.519531 57.398438 " fill-opacity="1" fill-rule="nonzero"/><path fill="#000000" d="M 27.332031 66.402344 L 35.058594 66.402344 C 35.117188 66.402344 35.175781 66.460938 35.175781 66.515625 L 35.148438 90.859375 C 35.148438 90.917969 35.089844 90.976562 35.03125 90.976562 L 27.304688 90.976562 C 27.246094 90.976562 27.1875 90.917969 27.1875 90.859375 L 27.21875 66.515625 C 27.21875 66.460938 27.246094 66.402344 27.332031 66.402344 Z M 27.332031 66.402344 " fill-opacity="1" fill-rule="nonzero"/><path fill="#000000" d="M 49.382812 94.1875 C 49.441406 94.1875 49.5 94.160156 49.5 94.101562 C 49.5 94.101562 49.5 94.101562 49.5 94.070312 C 49.527344 85.589844 49.527344 77.082031 49.527344 68.515625 C 49.527344 67.242188 50.136719 66.371094 51.527344 66.371094 C 56.707031 66.371094 62.433594 66.371094 68.683594 66.371094 C 70.101562 66.371094 70.683594 67.414062 70.683594 68.6875 C 70.683594 77.167969 70.683594 85.648438 70.683594 94.101562 C 70.683594 94.128906 70.710938 94.160156 70.738281 94.160156 C 72.503906 94.042969 73.605469 95.605469 73.375 97.226562 C 73.257812 98.035156 72.824219 98.644531 72.070312 99.050781 C 71.78125 99.222656 71.320312 99.28125 70.683594 99.28125 C 67.671875 99.253906 64.75 99.253906 61.886719 99.253906 C 61.828125 99.253906 61.796875 99.222656 61.796875 99.164062 C 61.796875 95.199219 61.796875 91.003906 61.796875 86.605469 C 61.796875 85.273438 60.0625 84.550781 59.050781 85.300781 C 58.644531 85.621094 58.414062 86.082031 58.414062 86.574219 C 58.414062 90.945312 58.414062 95.140625 58.441406 99.109375 C 58.441406 99.164062 58.382812 99.222656 58.324219 99.222656 C 55.257812 99.253906 52.335938 99.28125 49.5 99.253906 C 48.804688 99.253906 48.226562 99.078125 47.765625 98.761719 C 46.78125 98.066406 46.546875 96.675781 46.984375 95.605469 C 47.417969 94.535156 48.226562 94.042969 49.382812 94.1875 Z M 49.382812 94.1875 " fill-opacity="1" fill-rule="nonzero"/><path fill="#000000" d="M 85.265625 66.429688 L 92.964844 66.429688 C 92.992188 66.429688 93.023438 66.460938 93.023438 66.488281 L 93.023438 90.945312 C 93.023438 90.976562 92.992188 91.003906 92.964844 91.003906 L 85.265625 91.003906 C 85.238281 91.003906 85.207031 90.976562 85.207031 90.945312 L 85.207031 66.488281 C 85.207031 66.429688 85.238281 66.429688 85.265625 66.429688 Z M 85.265625 66.429688 " fill-opacity="1" fill-rule="nonzero"/><path fill="#000000" d="M 39.863281 67.152344 L 43.21875 67.152344 C 44.148438 67.152344 44.898438 67.90625 44.898438 68.832031 L 44.898438 88.804688 C 44.898438 89.730469 44.148438 90.484375 43.21875 90.484375 L 39.863281 90.484375 C 38.9375 90.484375 38.183594 89.730469 38.183594 88.804688 L 38.183594 68.832031 C 38.214844 67.90625 38.964844 67.152344 39.863281 67.152344 Z M 39.863281 67.152344 " fill-opacity="1" fill-rule="nonzero"/><path fill="#000000" d="M 81.9375 68.746094 L 81.9375 88.917969 C 81.9375 89.757812 81.246094 90.453125 80.40625 90.453125 C 80.40625 90.453125 80.375 90.453125 80.375 90.453125 L 76.789062 90.394531 C 75.949219 90.394531 75.285156 89.699219 75.285156 88.863281 L 75.3125 68.660156 C 75.3125 67.820312 76.007812 67.125 76.847656 67.125 C 76.847656 67.125 76.875 67.125 76.875 67.125 L 80.464844 67.210938 C 81.246094 67.242188 81.9375 67.90625 81.9375 68.746094 Z M 81.9375 68.746094 " fill-opacity="1" fill-rule="nonzero"/><path fill="#000000" d="M 38.996094 94.359375 C 40.820312 95.257812 41.253906 98.210938 39.113281 99.109375 C 38.792969 99.253906 38.332031 99.308594 37.75 99.308594 C 33.929688 99.28125 30.199219 99.308594 26.609375 99.308594 C 25.972656 99.308594 25.308594 99.367188 24.730469 99.164062 C 23.976562 98.90625 23.457031 98.355469 23.195312 97.515625 C 22.644531 95.777344 23.917969 94.101562 25.742188 93.984375 C 26.03125 93.957031 26.292969 93.957031 26.550781 93.957031 C 30.460938 93.957031 34.164062 93.925781 37.722656 93.957031 C 38.039062 93.984375 38.476562 94.128906 38.996094 94.359375 Z M 38.996094 94.359375 " fill-opacity="1" fill-rule="nonzero"/><path fill="#000000" d="M 96.898438 97.949219 C 96.378906 98.964844 95.480469 99.308594 94.351562 99.308594 C 90.242188 99.308594 86.136719 99.308594 82.054688 99.308594 C 79.132812 99.308594 78.753906 95.027344 81.417969 94.1875 C 81.851562 94.042969 82.371094 93.984375 82.921875 93.984375 C 86.28125 94.015625 89.695312 94.015625 93.167969 93.957031 C 94.179688 93.957031 94.875 94.042969 95.308594 94.214844 C 96.753906 94.882812 97.652344 96.472656 96.898438 97.949219 Z M 96.898438 97.949219 " fill-opacity="1" fill-rule="nonzero"/><path fill="#000000" d="M 102.542969 102.234375 C 104.164062 102.234375 105.550781 103.824219 105.203125 105.417969 C 105.058594 106.171875 104.421875 106.921875 103.613281 107.152344 C 103.46875 107.210938 103.238281 107.210938 102.949219 107.210938 C 88.480469 107.183594 73.71875 107.183594 58.617188 107.210938 C 57.457031 107.210938 56.183594 107.210938 54.796875 107.210938 C 42.4375 107.183594 30.113281 107.183594 17.84375 107.210938 C 17.0625 107.210938 16.511719 107.125 16.222656 106.953125 C 14.457031 105.910156 14.773438 103.363281 16.511719 102.496094 C 16.859375 102.320312 17.320312 102.234375 17.957031 102.234375 C 27.421875 102.203125 38.445312 102.203125 51.0625 102.203125 C 68.339844 102.234375 85.5 102.234375 102.542969 102.234375 Z M 102.542969 102.234375 " fill-opacity="1" fill-rule="nonzero"/><g clip-path="url(#85a3bc9896)"><path fill="#000000" d="M 10.433594 110.105469 L 109.863281 110.105469 C 111.628906 110.105469 113.046875 111.523438 113.046875 113.289062 L 113.046875 113.695312 C 113.046875 115.460938 111.628906 116.878906 109.863281 116.878906 L 10.433594 116.878906 C 8.667969 116.878906 7.25 115.460938 7.25 113.695312 L 7.25 113.320312 C 7.25 111.554688 8.667969 110.105469 10.433594 110.105469 Z M 10.433594 110.105469 " fill-opacity="1" fill-rule="nonzero"/></g><g clip-path="url(#f21e664de5)"><g mask="url(#78c0699726)"><g transform="matrix(1, 0, 0, 1, 29, 113)"><g clip-path="url(#2053f0647a)"><g clip-path="url(#e7c4df40df)"><path stroke-linecap="butt" transform="matrix(0.74845, 0, 0, 0.74845, 2.366609, 0.834488)" fill="none" stroke-linejoin="miter" d="M 0.000772942 2.000859 L 53.100068 2.000859 " stroke="#000000" stroke-width="4" stroke-opacity="1" stroke-miterlimit="4"/></g></g></g></g></g></svg>