<svg xmlns="http://www.w3.org/2000/svg" xmlns:xlink="http://www.w3.org/1999/xlink" width="70" zoomAndPan="magnify" viewBox="0 0 52.5 52.499999" height="70" preserveAspectRatio="xMidYMid meet" version="1.0"><defs><clipPath id="8e0b5e0b9f"><path d="M 0 0 L 52.003906 0 L 52.003906 52.003906 L 0 52.003906 Z M 0 0 " clip-rule="nonzero"/></clipPath></defs><g clip-path="url(#8e0b5e0b9f)"><path fill="#000000" d="M 26.003906 0 C 25.152344 0 24.300781 0.0429688 23.453125 0.125 C 22.605469 0.207031 21.765625 0.332031 20.929688 0.5 C 20.09375 0.664062 19.269531 0.871094 18.453125 1.121094 C 17.640625 1.367188 16.839844 1.652344 16.050781 1.980469 C 15.265625 2.304688 14.496094 2.667969 13.746094 3.070312 C 12.992188 3.472656 12.265625 3.910156 11.554688 4.382812 C 10.847656 4.855469 10.164062 5.363281 9.507812 5.902344 C 8.847656 6.441406 8.21875 7.015625 7.617188 7.617188 C 7.015625 8.21875 6.441406 8.847656 5.902344 9.507812 C 5.363281 10.164062 4.855469 10.847656 4.382812 11.554688 C 3.910156 12.265625 3.472656 12.992188 3.070312 13.746094 C 2.667969 14.496094 2.304688 15.265625 1.980469 16.050781 C 1.652344 16.839844 1.367188 17.640625 1.121094 18.453125 C 0.871094 19.269531 0.664062 20.09375 0.5 20.929688 C 0.332031 21.765625 0.207031 22.605469 0.125 23.453125 C 0.0429688 24.300781 0 25.152344 0 26.003906 C 0 26.855469 0.0429688 27.703125 0.125 28.550781 C 0.207031 29.398438 0.332031 30.238281 0.5 31.074219 C 0.664062 31.910156 0.871094 32.734375 1.121094 33.550781 C 1.367188 34.367188 1.652344 35.167969 1.980469 35.953125 C 2.304688 36.738281 2.667969 37.507812 3.070312 38.261719 C 3.472656 39.011719 3.910156 39.742188 4.382812 40.449219 C 4.855469 41.15625 5.363281 41.839844 5.902344 42.5 C 6.441406 43.15625 7.015625 43.785156 7.617188 44.390625 C 8.21875 44.992188 8.847656 45.5625 9.507812 46.101562 C 10.164062 46.644531 10.847656 47.148438 11.554688 47.621094 C 12.265625 48.09375 12.992188 48.53125 13.746094 48.933594 C 14.496094 49.335938 15.265625 49.699219 16.050781 50.027344 C 16.839844 50.351562 17.640625 50.636719 18.453125 50.886719 C 19.269531 51.132812 20.09375 51.339844 20.929688 51.503906 C 21.765625 51.671875 22.605469 51.796875 23.453125 51.878906 C 24.300781 51.964844 25.152344 52.003906 26.003906 52.003906 C 26.855469 52.003906 27.703125 51.964844 28.550781 51.878906 C 29.398438 51.796875 30.238281 51.671875 31.074219 51.503906 C 31.910156 51.339844 32.734375 51.132812 33.550781 50.886719 C 34.367188 50.636719 35.167969 50.351562 35.953125 50.027344 C 36.738281 49.699219 37.507812 49.335938 38.261719 48.933594 C 39.011719 48.53125 39.742188 48.09375 40.449219 47.621094 C 41.15625 47.148438 41.839844 46.644531 42.5 46.101562 C 43.15625 45.5625 43.785156 44.992188 44.390625 44.390625 C 44.992188 43.785156 45.5625 43.15625 46.101562 42.5 C 46.644531 41.839844 47.148438 41.15625 47.621094 40.449219 C 48.09375 39.742188 48.53125 39.011719 48.933594 38.261719 C 49.335938 37.507812 49.699219 36.738281 50.027344 35.953125 C 50.351562 35.167969 50.636719 34.367188 50.886719 33.550781 C 51.132812 32.734375 51.339844 31.910156 51.503906 31.074219 C 51.671875 30.238281 51.796875 29.398438 51.878906 28.550781 C 51.964844 27.703125 52.003906 26.855469 52.003906 26.003906 C 52.003906 25.152344 51.960938 24.300781 51.878906 23.453125 C 51.796875 22.605469 51.671875 21.765625 51.503906 20.929688 C 51.339844 20.09375 51.132812 19.269531 50.882812 18.453125 C 50.636719 17.640625 50.351562 16.839844 50.023438 16.050781 C 49.699219 15.265625 49.335938 14.496094 48.933594 13.746094 C 48.53125 12.996094 48.09375 12.265625 47.621094 11.558594 C 47.148438 10.847656 46.640625 10.164062 46.101562 9.507812 C 45.5625 8.847656 44.988281 8.21875 44.386719 7.617188 C 43.785156 7.015625 43.15625 6.445312 42.496094 5.902344 C 41.839844 5.363281 41.15625 4.855469 40.449219 4.382812 C 39.738281 3.910156 39.011719 3.472656 38.257812 3.070312 C 37.507812 2.667969 36.738281 2.304688 35.953125 1.980469 C 35.164062 1.652344 34.363281 1.367188 33.550781 1.121094 C 32.734375 0.875 31.910156 0.667969 31.074219 0.5 C 30.238281 0.332031 29.398438 0.210938 28.550781 0.125 C 27.703125 0.0429688 26.855469 0 26.003906 0 Z M 26.003906 9.75 C 26.308594 9.75 26.617188 9.769531 26.921875 9.804688 C 27.230469 9.839844 27.53125 9.890625 27.832031 9.960938 C 28.132812 10.03125 28.425781 10.121094 28.714844 10.226562 C 29.003906 10.328125 29.289062 10.449219 29.5625 10.589844 C 29.839844 10.726562 30.105469 10.878906 30.363281 11.046875 C 30.621094 11.214844 30.867188 11.398438 31.105469 11.59375 C 31.34375 11.789062 31.566406 12 31.78125 12.222656 C 31.992188 12.445312 32.191406 12.679688 32.375 12.925781 C 32.5625 13.171875 32.730469 13.429688 32.886719 13.695312 C 33.042969 13.960938 33.183594 14.234375 33.308594 14.515625 C 33.429688 14.796875 33.539062 15.085938 33.628906 15.378906 C 33.71875 15.675781 33.792969 15.972656 33.847656 16.273438 C 33.90625 16.578125 33.941406 16.882812 33.964844 17.191406 C 33.984375 17.496094 33.988281 17.804688 33.972656 18.113281 C 33.957031 18.421875 33.925781 18.726562 33.875 19.03125 C 33.824219 19.332031 33.757812 19.632812 33.671875 19.929688 C 33.585938 20.226562 33.484375 20.515625 33.367188 20.800781 C 33.246094 21.082031 33.113281 21.359375 32.960938 21.628906 C 32.8125 21.898438 32.644531 22.15625 32.464844 22.40625 C 32.285156 22.65625 32.089844 22.890625 31.882812 23.121094 C 31.671875 23.347656 31.453125 23.558594 31.21875 23.761719 C 30.988281 23.960938 30.742188 24.148438 30.488281 24.324219 C 30.234375 24.496094 29.96875 24.652344 29.695312 24.796875 C 29.425781 24.9375 29.144531 25.066406 28.855469 25.175781 C 28.570312 25.285156 28.277344 25.378906 27.976562 25.453125 C 27.679688 25.53125 27.378906 25.589844 27.070312 25.628906 C 26.765625 25.671875 26.460938 25.695312 26.152344 25.699219 C 25.84375 25.707031 25.539062 25.695312 25.230469 25.664062 C 24.925781 25.632812 24.621094 25.585938 24.320312 25.519531 C 24.019531 25.457031 23.722656 25.375 23.429688 25.273438 C 23.140625 25.175781 22.855469 25.058594 22.578125 24.925781 C 22.300781 24.792969 22.03125 24.644531 21.769531 24.484375 C 15.074219 20.242188 17.972656 9.832031 26.003906 9.75 Z M 35.355469 42.253906 L 16.648438 42.253906 C 16.261719 42.253906 15.878906 42.214844 15.5 42.136719 C 15.121094 42.0625 14.753906 41.949219 14.394531 41.800781 C 14.039062 41.652344 13.699219 41.472656 13.375 41.257812 C 13.054688 41.039062 12.757812 40.796875 12.484375 40.523438 C 12.210938 40.25 11.964844 39.949219 11.75 39.628906 C 11.535156 39.308594 11.355469 38.96875 11.207031 38.609375 C 11.058594 38.253906 10.949219 37.882812 10.871094 37.503906 C 10.796875 37.125 10.757812 36.742188 10.757812 36.355469 C 10.757812 31.355469 14.4375 27.042969 19.722656 25.101562 C 20.15625 25.46875 20.621094 25.796875 21.113281 26.082031 C 21.609375 26.371094 22.121094 26.613281 22.65625 26.808594 C 23.195312 27.003906 23.742188 27.152344 24.304688 27.25 C 24.867188 27.351562 25.433594 27.402344 26.003906 27.402344 C 26.574219 27.402344 27.140625 27.351562 27.699219 27.25 C 28.261719 27.152344 28.8125 27.003906 29.347656 26.808594 C 29.882812 26.613281 30.398438 26.371094 30.890625 26.082031 C 31.382812 25.796875 31.847656 25.46875 32.285156 25.101562 C 37.566406 27.042969 41.246094 31.355469 41.246094 36.355469 C 41.246094 36.742188 41.207031 37.125 41.132812 37.503906 C 41.058594 37.882812 40.945312 38.253906 40.796875 38.609375 C 40.648438 38.96875 40.46875 39.308594 40.253906 39.628906 C 40.039062 39.949219 39.792969 40.25 39.519531 40.523438 C 39.246094 40.796875 38.949219 41.039062 38.628906 41.257812 C 38.304688 41.472656 37.96875 41.652344 37.609375 41.800781 C 37.253906 41.949219 36.882812 42.0625 36.503906 42.136719 C 36.125 42.214844 35.742188 42.253906 35.355469 42.253906 Z M 35.355469 42.253906 " fill-opacity="1" fill-rule="nonzero"/></g></svg>